<svg width="1021" height="479" viewBox="0 0 1021 479" fill="none" xmlns="http://www.w3.org/2000/svg">
<g filter="url(#filter0_d)">
<path d="M94.563 110.342C88.8883 110.342 83.8723 110.088 79.515 109.582C75.1576 109.075 70.851 108.214 66.595 106.998C62.035 105.782 58.2856 104.16 55.347 102.134C52.4083 100.006 50.027 97.2695 48.203 93.9255C46.379 90.3789 45.467 86.3255 45.467 81.7655V40.7255C45.467 35.7602 46.4803 31.3015 48.507 27.3495C50.5336 23.2962 53.2696 20.1042 56.715 17.7735C59.9576 15.6455 63.8083 13.8215 68.267 12.3015C72.827 10.7815 77.2856 9.76819 81.643 9.26153C85.291 8.85619 89.699 8.65353 94.867 8.65353C108.851 8.65353 122.227 9.71753 134.995 11.8455V29.7815C123.24 26.9442 109.864 25.5255 94.867 25.5255C77.7416 25.5255 69.179 30.4909 69.179 40.4215V80.0935C69.179 84.9575 71.459 88.4029 76.019 90.4295C80.6803 92.4562 87.6723 93.4695 96.995 93.4695C101.96 93.4695 107.28 92.7095 112.955 91.1895V68.2375H96.843V52.7335H135.603V103.958C130.536 105.782 124.051 107.302 116.147 108.518C108.344 109.734 101.15 110.342 94.563 110.342ZM154.767 10.1735H230.007V27.0455H178.479V49.6935H224.991V66.5655H178.479V91.9495H231.527V108.822H154.767V10.1735ZM247.54 10.1735H271.556L319.284 77.5095V10.1735H340.412V108.822H316.396L268.668 40.4215V108.822H247.54V10.1735ZM361.689 10.1735H436.929V27.0455H385.401V49.6935H431.913V66.5655H385.401V91.9495H438.449V108.822H361.689V10.1735ZM454.462 10.1735H498.846C512.019 10.1735 521.545 11.7949 527.422 15.0375C533.299 18.1789 536.238 23.4989 536.238 30.9975V48.3255C536.238 54.1015 534.161 58.6615 530.006 62.0055C525.953 65.2482 520.531 67.3255 513.742 68.2375L542.318 108.822H514.958L489.118 70.0615H478.174V108.822H454.462V10.1735ZM498.542 54.4055C504.115 54.4055 507.915 53.6962 509.942 52.2775C511.969 50.7575 512.982 47.8695 512.982 43.6135V36.6215C512.982 32.9735 511.867 30.4909 509.638 29.1735C507.51 27.7549 503.811 27.0455 498.542 27.0455H478.174V54.4055H498.542ZM582.137 10.1735H611.017L646.585 108.822H622.569L613.753 82.8295H577.729L569.065 108.822H545.657L582.137 10.1735ZM608.585 67.0215L596.121 29.9335H595.513L583.049 67.0215H608.585ZM680.325 27.0455H649.925V10.1735H734.285V27.0455H704.037V108.822H680.325V27.0455ZM747.923 10.1735H771.635V108.822H747.923V10.1735ZM837.436 110.342C831.964 110.342 826.897 109.987 822.236 109.278C817.676 108.568 812.913 107.352 807.948 105.63C802.577 103.806 798.372 100.867 795.332 96.8135C792.292 92.6589 790.772 87.6429 790.772 81.7655V38.5975C790.772 33.7335 791.836 29.3762 793.964 25.5255C796.193 21.6749 799.03 18.6349 802.476 16.4055C805.516 14.4802 809.265 12.8589 813.724 11.5415C818.182 10.2242 822.337 9.41353 826.188 9.10953C829.734 8.80553 833.484 8.65353 837.436 8.65353C842.097 8.65353 846.15 8.85619 849.596 9.26153C853.041 9.56553 856.892 10.2749 861.148 11.3895C866.012 12.8082 870.014 14.5309 873.156 16.5575C876.297 18.5842 878.932 21.4215 881.06 25.0695C883.289 28.8189 884.404 33.3282 884.404 38.5975V81.7655C884.404 87.2375 882.934 91.9495 879.996 95.9015C877.158 99.8535 873.206 102.843 868.14 104.87C859.02 108.518 848.785 110.342 837.436 110.342ZM837.74 93.4695C841.084 93.4695 843.87 93.3682 846.1 93.1655C848.43 92.8615 850.812 92.3549 853.244 91.6455C855.676 90.9362 857.5 89.7709 858.716 88.1495C860.033 86.4269 860.692 84.2989 860.692 81.7655V38.4455C860.692 33.7842 858.817 30.4909 855.068 28.5655C851.318 26.5389 845.492 25.5255 837.588 25.5255C829.684 25.5255 823.857 26.4882 820.108 28.4135C816.358 30.3389 814.484 33.6829 814.484 38.4455V81.7655C814.484 84.2989 815.142 86.4269 816.46 88.1495C817.777 89.7709 819.702 90.9362 822.236 91.6455C824.668 92.3549 826.998 92.8615 829.228 93.1655C831.558 93.3682 834.396 93.4695 837.74 93.4695ZM903.486 10.1735H927.502L975.23 77.5095V10.1735H996.358V108.822H972.342L924.614 40.4215V108.822H903.486V10.1735ZM457.955 286.342C452.483 286.342 447.417 285.987 442.755 285.278C438.195 284.568 433.433 283.352 428.467 281.63C423.097 279.806 418.891 276.867 415.851 272.814C412.811 268.659 411.291 263.643 411.291 257.766V214.598C411.291 209.734 412.355 205.376 414.483 201.526C416.713 197.675 419.55 194.635 422.995 192.406C426.035 190.48 429.785 188.859 434.243 187.542C438.702 186.224 442.857 185.414 446.707 185.11C450.254 184.806 454.003 184.654 457.955 184.654C462.617 184.654 466.67 184.856 470.115 185.262C473.561 185.566 477.411 186.275 481.667 187.39C486.531 188.808 490.534 190.531 493.675 192.558C496.817 194.584 499.451 197.422 501.579 201.07C503.809 204.819 504.923 209.328 504.923 214.598V257.766C504.923 263.238 503.454 267.95 500.515 271.902C497.678 275.854 493.726 278.843 488.659 280.87C479.539 284.518 469.305 286.342 457.955 286.342ZM458.259 269.47C461.603 269.47 464.39 269.368 466.619 269.166C468.95 268.862 471.331 268.355 473.763 267.646C476.195 266.936 478.019 265.771 479.235 264.15C480.553 262.427 481.211 260.299 481.211 257.766V214.446C481.211 209.784 479.337 206.491 475.587 204.566C471.838 202.539 466.011 201.526 458.107 201.526C450.203 201.526 444.377 202.488 440.627 204.414C436.878 206.339 435.003 209.683 435.003 214.446V257.766C435.003 260.299 435.662 262.427 436.979 264.15C438.297 265.771 440.222 266.936 442.755 267.646C445.187 268.355 447.518 268.862 449.747 269.166C452.078 269.368 454.915 269.47 458.259 269.47ZM524.005 186.174H600.765V203.046H547.717V227.214H595.749V244.086H547.717V284.822H524.005V186.174ZM58.5241 362.174H87.4041L122.972 460.822H98.9561L90.1401 434.83H54.1161L45.4521 460.822H22.0441L58.5241 362.174ZM84.9721 419.022L72.5081 381.934H71.9001L59.4361 419.022H84.9721ZM133.911 362.174H175.863C187.415 362.174 196.535 363.086 203.223 364.91C209.911 366.632 214.826 369.672 217.967 374.03C221.109 378.387 222.679 384.416 222.679 392.118V432.246C222.679 439.744 221.21 445.571 218.271 449.726C215.333 453.779 210.519 456.667 203.831 458.39C197.143 460.011 187.871 460.822 176.015 460.822H133.911V362.174ZM174.951 443.95C181.437 443.95 186.301 443.696 189.543 443.19C192.887 442.582 195.269 441.467 196.687 439.846C198.207 438.224 198.967 435.691 198.967 432.246V391.662C198.967 387 197.093 383.758 193.343 381.934C189.695 380.008 183.818 379.046 175.711 379.046H157.623V443.95H174.951ZM231.185 362.174H255.201L281.649 441.062H282.257L308.705 362.174H332.113L295.633 460.822H266.601L231.185 362.174ZM342.763 362.174H418.003V379.046H366.475V401.694H412.987V418.566H366.475V443.95H419.523V460.822H342.763V362.174ZM435.536 362.174H459.552L507.28 429.51V362.174H528.408V460.822H504.392L456.664 392.422V460.822H435.536V362.174ZM572.485 379.046H542.085V362.174H626.445V379.046H596.197V460.822H572.485V379.046ZM682.491 462.342C654.017 462.342 639.779 452.816 639.779 433.766V362.174H663.491V433.766C663.491 438.224 664.91 441.315 667.747 443.038C670.686 444.659 675.702 445.47 682.795 445.47C689.787 445.47 694.651 444.659 697.387 443.038C700.225 441.315 701.643 438.224 701.643 433.766V362.174H725.355V433.766C725.355 452.816 711.067 462.342 682.491 462.342ZM746.364 362.174H790.748C803.922 362.174 813.447 363.795 819.324 367.038C825.202 370.179 828.14 375.499 828.14 382.998V400.326C828.14 406.102 826.063 410.662 821.908 414.006C817.855 417.248 812.434 419.326 805.644 420.238L834.22 460.822H806.86L781.02 422.062H770.076V460.822H746.364V362.174ZM790.444 406.406C796.018 406.406 799.818 405.696 801.844 404.278C803.871 402.758 804.884 399.87 804.884 395.614V388.622C804.884 384.974 803.77 382.491 801.54 381.174C799.412 379.755 795.714 379.046 790.444 379.046H770.076V406.406H790.444ZM847.896 362.174H923.136V379.046H871.608V401.694H918.12V418.566H871.608V443.95H924.656V460.822H847.896V362.174ZM972.589 462.342C963.165 462.342 951.512 461.43 937.629 459.606V441.518C954.856 444.152 966.611 445.47 972.893 445.47C986.067 445.47 992.653 442.075 992.653 435.286V428.902C992.653 425.659 991.691 423.176 989.765 421.454C987.941 419.731 984.597 418.87 979.733 418.87H968.181C946.496 418.87 935.653 410.256 935.653 393.03V385.734C935.653 377.12 939.251 370.787 946.445 366.734C953.64 362.68 965.04 360.654 980.645 360.654C988.752 360.654 999.037 361.312 1011.5 362.63V380.262C996.2 378.438 985.661 377.526 979.885 377.526C971.88 377.526 966.509 378.184 963.773 379.502C960.835 380.92 959.365 383.15 959.365 386.19V393.182C959.365 398.35 963.723 400.934 972.437 400.934H984.293C995.541 400.934 1003.7 403.011 1008.77 407.166C1013.83 411.32 1016.37 417.654 1016.37 426.166V432.702C1016.37 444.456 1012.16 452.411 1003.75 456.566C999.696 458.694 995.187 460.163 990.221 460.974C985.357 461.886 979.48 462.342 972.589 462.342Z" fill="#E9DBDB" fill-opacity="0.01"/>
<path d="M94.563 110.342C88.8883 110.342 83.8723 110.088 79.515 109.582C75.1576 109.075 70.851 108.214 66.595 106.998C62.035 105.782 58.2856 104.16 55.347 102.134C52.4083 100.006 50.027 97.2695 48.203 93.9255C46.379 90.3789 45.467 86.3255 45.467 81.7655V40.7255C45.467 35.7602 46.4803 31.3015 48.507 27.3495C50.5336 23.2962 53.2696 20.1042 56.715 17.7735C59.9576 15.6455 63.8083 13.8215 68.267 12.3015C72.827 10.7815 77.2856 9.76819 81.643 9.26153C85.291 8.85619 89.699 8.65353 94.867 8.65353C108.851 8.65353 122.227 9.71753 134.995 11.8455V29.7815C123.24 26.9442 109.864 25.5255 94.867 25.5255C77.7416 25.5255 69.179 30.4909 69.179 40.4215V80.0935C69.179 84.9575 71.459 88.4029 76.019 90.4295C80.6803 92.4562 87.6723 93.4695 96.995 93.4695C101.96 93.4695 107.28 92.7095 112.955 91.1895V68.2375H96.843V52.7335H135.603V103.958C130.536 105.782 124.051 107.302 116.147 108.518C108.344 109.734 101.15 110.342 94.563 110.342ZM154.767 10.1735H230.007V27.0455H178.479V49.6935H224.991V66.5655H178.479V91.9495H231.527V108.822H154.767V10.1735ZM247.54 10.1735H271.556L319.284 77.5095V10.1735H340.412V108.822H316.396L268.668 40.4215V108.822H247.54V10.1735ZM361.689 10.1735H436.929V27.0455H385.401V49.6935H431.913V66.5655H385.401V91.9495H438.449V108.822H361.689V10.1735ZM454.462 10.1735H498.846C512.019 10.1735 521.545 11.7949 527.422 15.0375C533.299 18.1789 536.238 23.4989 536.238 30.9975V48.3255C536.238 54.1015 534.161 58.6615 530.006 62.0055C525.953 65.2482 520.531 67.3255 513.742 68.2375L542.318 108.822H514.958L489.118 70.0615H478.174V108.822H454.462V10.1735ZM498.542 54.4055C504.115 54.4055 507.915 53.6962 509.942 52.2775C511.969 50.7575 512.982 47.8695 512.982 43.6135V36.6215C512.982 32.9735 511.867 30.4909 509.638 29.1735C507.51 27.7549 503.811 27.0455 498.542 27.0455H478.174V54.4055H498.542ZM582.137 10.1735H611.017L646.585 108.822H622.569L613.753 82.8295H577.729L569.065 108.822H545.657L582.137 10.1735ZM608.585 67.0215L596.121 29.9335H595.513L583.049 67.0215H608.585ZM680.325 27.0455H649.925V10.1735H734.285V27.0455H704.037V108.822H680.325V27.0455ZM747.923 10.1735H771.635V108.822H747.923V10.1735ZM837.436 110.342C831.964 110.342 826.897 109.987 822.236 109.278C817.676 108.568 812.913 107.352 807.948 105.63C802.577 103.806 798.372 100.867 795.332 96.8135C792.292 92.6589 790.772 87.6429 790.772 81.7655V38.5975C790.772 33.7335 791.836 29.3762 793.964 25.5255C796.193 21.6749 799.03 18.6349 802.476 16.4055C805.516 14.4802 809.265 12.8589 813.724 11.5415C818.182 10.2242 822.337 9.41353 826.188 9.10953C829.734 8.80553 833.484 8.65353 837.436 8.65353C842.097 8.65353 846.15 8.85619 849.596 9.26153C853.041 9.56553 856.892 10.2749 861.148 11.3895C866.012 12.8082 870.014 14.5309 873.156 16.5575C876.297 18.5842 878.932 21.4215 881.06 25.0695C883.289 28.8189 884.404 33.3282 884.404 38.5975V81.7655C884.404 87.2375 882.934 91.9495 879.996 95.9015C877.158 99.8535 873.206 102.843 868.14 104.87C859.02 108.518 848.785 110.342 837.436 110.342ZM837.74 93.4695C841.084 93.4695 843.87 93.3682 846.1 93.1655C848.43 92.8615 850.812 92.3549 853.244 91.6455C855.676 90.9362 857.5 89.7709 858.716 88.1495C860.033 86.4269 860.692 84.2989 860.692 81.7655V38.4455C860.692 33.7842 858.817 30.4909 855.068 28.5655C851.318 26.5389 845.492 25.5255 837.588 25.5255C829.684 25.5255 823.857 26.4882 820.108 28.4135C816.358 30.3389 814.484 33.6829 814.484 38.4455V81.7655C814.484 84.2989 815.142 86.4269 816.46 88.1495C817.777 89.7709 819.702 90.9362 822.236 91.6455C824.668 92.3549 826.998 92.8615 829.228 93.1655C831.558 93.3682 834.396 93.4695 837.74 93.4695ZM903.486 10.1735H927.502L975.23 77.5095V10.1735H996.358V108.822H972.342L924.614 40.4215V108.822H903.486V10.1735ZM457.955 286.342C452.483 286.342 447.417 285.987 442.755 285.278C438.195 284.568 433.433 283.352 428.467 281.63C423.097 279.806 418.891 276.867 415.851 272.814C412.811 268.659 411.291 263.643 411.291 257.766V214.598C411.291 209.734 412.355 205.376 414.483 201.526C416.713 197.675 419.55 194.635 422.995 192.406C426.035 190.48 429.785 188.859 434.243 187.542C438.702 186.224 442.857 185.414 446.707 185.11C450.254 184.806 454.003 184.654 457.955 184.654C462.617 184.654 466.67 184.856 470.115 185.262C473.561 185.566 477.411 186.275 481.667 187.39C486.531 188.808 490.534 190.531 493.675 192.558C496.817 194.584 499.451 197.422 501.579 201.07C503.809 204.819 504.923 209.328 504.923 214.598V257.766C504.923 263.238 503.454 267.95 500.515 271.902C497.678 275.854 493.726 278.843 488.659 280.87C479.539 284.518 469.305 286.342 457.955 286.342ZM458.259 269.47C461.603 269.47 464.39 269.368 466.619 269.166C468.95 268.862 471.331 268.355 473.763 267.646C476.195 266.936 478.019 265.771 479.235 264.15C480.553 262.427 481.211 260.299 481.211 257.766V214.446C481.211 209.784 479.337 206.491 475.587 204.566C471.838 202.539 466.011 201.526 458.107 201.526C450.203 201.526 444.377 202.488 440.627 204.414C436.878 206.339 435.003 209.683 435.003 214.446V257.766C435.003 260.299 435.662 262.427 436.979 264.15C438.297 265.771 440.222 266.936 442.755 267.646C445.187 268.355 447.518 268.862 449.747 269.166C452.078 269.368 454.915 269.47 458.259 269.47ZM524.005 186.174H600.765V203.046H547.717V227.214H595.749V244.086H547.717V284.822H524.005V186.174ZM58.5241 362.174H87.4041L122.972 460.822H98.9561L90.1401 434.83H54.1161L45.4521 460.822H22.0441L58.5241 362.174ZM84.9721 419.022L72.5081 381.934H71.9001L59.4361 419.022H84.9721ZM133.911 362.174H175.863C187.415 362.174 196.535 363.086 203.223 364.91C209.911 366.632 214.826 369.672 217.967 374.03C221.109 378.387 222.679 384.416 222.679 392.118V432.246C222.679 439.744 221.21 445.571 218.271 449.726C215.333 453.779 210.519 456.667 203.831 458.39C197.143 460.011 187.871 460.822 176.015 460.822H133.911V362.174ZM174.951 443.95C181.437 443.95 186.301 443.696 189.543 443.19C192.887 442.582 195.269 441.467 196.687 439.846C198.207 438.224 198.967 435.691 198.967 432.246V391.662C198.967 387 197.093 383.758 193.343 381.934C189.695 380.008 183.818 379.046 175.711 379.046H157.623V443.95H174.951ZM231.185 362.174H255.201L281.649 441.062H282.257L308.705 362.174H332.113L295.633 460.822H266.601L231.185 362.174ZM342.763 362.174H418.003V379.046H366.475V401.694H412.987V418.566H366.475V443.95H419.523V460.822H342.763V362.174ZM435.536 362.174H459.552L507.28 429.51V362.174H528.408V460.822H504.392L456.664 392.422V460.822H435.536V362.174ZM572.485 379.046H542.085V362.174H626.445V379.046H596.197V460.822H572.485V379.046ZM682.491 462.342C654.017 462.342 639.779 452.816 639.779 433.766V362.174H663.491V433.766C663.491 438.224 664.91 441.315 667.747 443.038C670.686 444.659 675.702 445.47 682.795 445.47C689.787 445.47 694.651 444.659 697.387 443.038C700.225 441.315 701.643 438.224 701.643 433.766V362.174H725.355V433.766C725.355 452.816 711.067 462.342 682.491 462.342ZM746.364 362.174H790.748C803.922 362.174 813.447 363.795 819.324 367.038C825.202 370.179 828.14 375.499 828.14 382.998V400.326C828.14 406.102 826.063 410.662 821.908 414.006C817.855 417.248 812.434 419.326 805.644 420.238L834.22 460.822H806.86L781.02 422.062H770.076V460.822H746.364V362.174ZM790.444 406.406C796.018 406.406 799.818 405.696 801.844 404.278C803.871 402.758 804.884 399.87 804.884 395.614V388.622C804.884 384.974 803.77 382.491 801.54 381.174C799.412 379.755 795.714 379.046 790.444 379.046H770.076V406.406H790.444ZM847.896 362.174H923.136V379.046H871.608V401.694H918.12V418.566H871.608V443.95H924.656V460.822H847.896V362.174ZM972.589 462.342C963.165 462.342 951.512 461.43 937.629 459.606V441.518C954.856 444.152 966.611 445.47 972.893 445.47C986.067 445.47 992.653 442.075 992.653 435.286V428.902C992.653 425.659 991.691 423.176 989.765 421.454C987.941 419.731 984.597 418.87 979.733 418.87H968.181C946.496 418.87 935.653 410.256 935.653 393.03V385.734C935.653 377.12 939.251 370.787 946.445 366.734C953.64 362.68 965.04 360.654 980.645 360.654C988.752 360.654 999.037 361.312 1011.5 362.63V380.262C996.2 378.438 985.661 377.526 979.885 377.526C971.88 377.526 966.509 378.184 963.773 379.502C960.835 380.92 959.365 383.15 959.365 386.19V393.182C959.365 398.35 963.723 400.934 972.437 400.934H984.293C995.541 400.934 1003.7 403.011 1008.77 407.166C1013.83 411.32 1016.37 417.654 1016.37 426.166V432.702C1016.37 444.456 1012.16 452.411 1003.75 456.566C999.696 458.694 995.187 460.163 990.221 460.974C985.357 461.886 979.48 462.342 972.589 462.342Z" fill="url(#paint0_linear)"/>
<path d="M79.515 109.582L79.2262 112.065L79.2262 112.065L79.515 109.582ZM66.595 106.998L67.2818 104.594L67.2605 104.588L67.2391 104.582L66.595 106.998ZM55.347 102.134L53.8807 104.158L53.904 104.175L53.9276 104.192L55.347 102.134ZM48.203 93.9255L45.9797 95.0689L45.9936 95.096L46.0082 95.1227L48.203 93.9255ZM48.507 27.3495L50.7315 28.4903L50.7373 28.479L50.743 28.4676L48.507 27.3495ZM56.715 17.7735L55.3433 15.6834L55.3287 15.693L55.3142 15.7028L56.715 17.7735ZM68.267 12.3015L67.4764 9.92982L67.4683 9.93251L67.4603 9.93525L68.267 12.3015ZM81.643 9.26153L81.3669 6.77679L81.3542 6.77826L81.643 9.26153ZM134.995 11.8455H137.495V9.72771L135.406 9.37955L134.995 11.8455ZM134.995 29.7815L134.408 32.2117L137.495 32.9568V29.7815H134.995ZM76.019 90.4295L75.0036 92.7141L75.0129 92.7182L75.0221 92.7222L76.019 90.4295ZM112.955 91.1895L113.602 93.6044L115.455 93.108V91.1895H112.955ZM112.955 68.2375H115.455V65.7375H112.955V68.2375ZM96.843 68.2375H94.343V70.7375H96.843V68.2375ZM96.843 52.7335V50.2335H94.343V52.7335H96.843ZM135.603 52.7335H138.103V50.2335H135.603V52.7335ZM135.603 103.958L136.45 106.31L138.103 105.715V103.958H135.603ZM116.147 108.518L115.767 106.047L115.762 106.047L116.147 108.518ZM94.563 107.842C88.9584 107.842 84.0422 107.591 79.8037 107.098L79.2262 112.065C83.7024 112.585 88.8181 112.842 94.563 112.842V107.842ZM79.8037 107.098C75.5822 106.607 71.4086 105.773 67.2818 104.594L65.9082 109.401C70.2933 110.654 74.733 111.542 79.2262 112.065L79.8037 107.098ZM67.2391 104.582C62.8721 103.417 59.4067 101.896 56.7663 100.076L53.9276 104.192C57.1645 106.424 61.1978 108.146 65.9508 109.413L67.2391 104.582ZM56.8132 100.109C54.191 98.2098 52.0526 95.7624 50.3977 92.7284L46.0082 95.1227C48.0013 98.7767 50.6256 101.801 53.8807 104.158L56.8132 100.109ZM50.4262 92.7822C48.8086 89.6369 47.967 85.9852 47.967 81.7655H42.967C42.967 86.6659 43.9493 91.1208 45.9797 95.0689L50.4262 92.7822ZM47.967 81.7655V40.7255H42.967V81.7655H47.967ZM47.967 40.7255C47.967 36.1095 48.9063 32.0494 50.7315 28.4903L46.2824 26.2087C44.0543 30.5537 42.967 35.4109 42.967 40.7255H47.967ZM50.743 28.4676C52.5953 24.7629 55.0573 21.9131 58.1157 19.8442L55.3142 15.7028C51.4819 18.2952 48.4719 21.8295 46.2709 26.2315L50.743 28.4676ZM58.0866 19.8636C61.1205 17.8727 64.7732 16.1339 69.0736 14.6678L67.4603 9.93525C62.8434 11.5092 58.7948 13.4184 55.3433 15.6834L58.0866 19.8636ZM69.0575 14.6732C73.4699 13.2024 77.7604 12.2298 81.9317 11.7448L81.3542 6.77826C76.8109 7.30656 72.184 8.36061 67.4764 9.92982L69.0575 14.6732ZM81.919 11.7462C85.4469 11.3543 89.7572 11.1535 94.867 11.1535V6.15353C89.6407 6.15353 85.1351 6.35813 81.3669 6.77682L81.919 11.7462ZM94.867 11.1535C108.724 11.1535 121.962 12.2079 134.584 14.3115L135.406 9.37955C122.492 7.22718 108.978 6.15353 94.867 6.15353V11.1535ZM132.495 11.8455V29.7815H137.495V11.8455H132.495ZM135.582 27.3513C123.595 24.4581 110.017 23.0255 94.867 23.0255V28.0255C109.712 28.0255 122.885 29.4303 134.408 32.2117L135.582 27.3513ZM94.867 23.0255C86.1446 23.0255 79.1948 24.2756 74.3469 27.0868C69.2912 30.0185 66.679 34.5684 66.679 40.4215H71.679C71.679 36.344 73.3481 33.4459 76.8551 31.4122C80.5697 29.2581 86.464 28.0255 94.867 28.0255V23.0255ZM66.679 40.4215V80.0935H71.679V40.4215H66.679ZM66.679 80.0935C66.679 82.9274 67.3482 85.5051 68.8041 87.7052C70.2573 89.901 72.3794 91.5478 75.0036 92.7141L77.0343 88.145C75.0985 87.2846 73.8007 86.1954 72.9738 84.9459C72.1497 83.7006 71.679 82.1236 71.679 80.0935H66.679ZM75.0221 92.7222C80.1607 94.9564 87.5679 95.9695 96.995 95.9695V90.9695C87.7767 90.9695 81.1998 89.956 77.0158 88.1369L75.0221 92.7222ZM96.995 95.9695C102.214 95.9695 107.754 95.1709 113.602 93.6044L112.308 88.7747C106.807 90.2482 101.706 90.9695 96.995 90.9695V95.9695ZM115.455 91.1895V68.2375H110.455V91.1895H115.455ZM112.955 65.7375H96.843V70.7375H112.955V65.7375ZM99.343 68.2375V52.7335H94.343V68.2375H99.343ZM96.843 55.2335H135.603V50.2335H96.843V55.2335ZM133.103 52.7335V103.958H138.103V52.7335H133.103ZM134.756 101.605C129.895 103.355 123.58 104.845 115.767 106.047L116.527 110.988C124.522 109.759 131.178 108.208 136.45 106.31L134.756 101.605ZM115.762 106.047C108.062 107.247 100.998 107.842 94.563 107.842V112.842C101.301 112.842 108.626 112.22 116.532 110.988L115.762 106.047ZM154.767 10.1735V7.67353H152.267V10.1735H154.767ZM230.007 10.1735H232.507V7.67353H230.007V10.1735ZM230.007 27.0455V29.5455H232.507V27.0455H230.007ZM178.479 27.0455V24.5455H175.979V27.0455H178.479ZM178.479 49.6935H175.979V52.1935H178.479V49.6935ZM224.991 49.6935H227.491V47.1935H224.991V49.6935ZM224.991 66.5655V69.0655H227.491V66.5655H224.991ZM178.479 66.5655V64.0655H175.979V66.5655H178.479ZM178.479 91.9495H175.979V94.4495H178.479V91.9495ZM231.527 91.9495H234.027V89.4495H231.527V91.9495ZM231.527 108.822V111.322H234.027V108.822H231.527ZM154.767 108.822H152.267V111.322H154.767V108.822ZM154.767 12.6735H230.007V7.67353H154.767V12.6735ZM227.507 10.1735V27.0455H232.507V10.1735H227.507ZM230.007 24.5455H178.479V29.5455H230.007V24.5455ZM175.979 27.0455V49.6935H180.979V27.0455H175.979ZM178.479 52.1935H224.991V47.1935H178.479V52.1935ZM222.491 49.6935V66.5655H227.491V49.6935H222.491ZM224.991 64.0655H178.479V69.0655H224.991V64.0655ZM175.979 66.5655V91.9495H180.979V66.5655H175.979ZM178.479 94.4495H231.527V89.4495H178.479V94.4495ZM229.027 91.9495V108.822H234.027V91.9495H229.027ZM231.527 106.322H154.767V111.322H231.527V106.322ZM157.267 108.822V10.1735H152.267V108.822H157.267ZM247.54 10.1735V7.67353H245.04V10.1735H247.54ZM271.556 10.1735L273.596 8.72784L272.849 7.67353H271.556V10.1735ZM319.284 77.5095L317.245 78.9552L321.784 85.3598V77.5095H319.284ZM319.284 10.1735V7.67353H316.784V10.1735H319.284ZM340.412 10.1735H342.912V7.67353H340.412V10.1735ZM340.412 108.822V111.322H342.912V108.822H340.412ZM316.396 108.822L314.346 110.252L315.092 111.322H316.396V108.822ZM268.668 40.4215L270.718 38.9909L266.168 32.4699V40.4215H268.668ZM268.668 108.822V111.322H271.168V108.822H268.668ZM247.54 108.822H245.04V111.322H247.54V108.822ZM247.54 12.6735H271.556V7.67353H247.54V12.6735ZM269.517 11.6192L317.245 78.9552L321.324 76.0638L273.596 8.72784L269.517 11.6192ZM321.784 77.5095V10.1735H316.784V77.5095H321.784ZM319.284 12.6735H340.412V7.67353H319.284V12.6735ZM337.912 10.1735V108.822H342.912V10.1735H337.912ZM340.412 106.322H316.396V111.322H340.412V106.322ZM318.446 107.391L270.718 38.9909L266.618 41.8521L314.346 110.252L318.446 107.391ZM266.168 40.4215V108.822H271.168V40.4215H266.168ZM268.668 106.322H247.54V111.322H268.668V106.322ZM250.04 108.822V10.1735H245.04V108.822H250.04ZM361.689 10.1735V7.67353H359.189V10.1735H361.689ZM436.929 10.1735H439.429V7.67353H436.929V10.1735ZM436.929 27.0455V29.5455H439.429V27.0455H436.929ZM385.401 27.0455V24.5455H382.901V27.0455H385.401ZM385.401 49.6935H382.901V52.1935H385.401V49.6935ZM431.913 49.6935H434.413V47.1935H431.913V49.6935ZM431.913 66.5655V69.0655H434.413V66.5655H431.913ZM385.401 66.5655V64.0655H382.901V66.5655H385.401ZM385.401 91.9495H382.901V94.4495H385.401V91.9495ZM438.449 91.9495H440.949V89.4495H438.449V91.9495ZM438.449 108.822V111.322H440.949V108.822H438.449ZM361.689 108.822H359.189V111.322H361.689V108.822ZM361.689 12.6735H436.929V7.67353H361.689V12.6735ZM434.429 10.1735V27.0455H439.429V10.1735H434.429ZM436.929 24.5455H385.401V29.5455H436.929V24.5455ZM382.901 27.0455V49.6935H387.901V27.0455H382.901ZM385.401 52.1935H431.913V47.1935H385.401V52.1935ZM429.413 49.6935V66.5655H434.413V49.6935H429.413ZM431.913 64.0655H385.401V69.0655H431.913V64.0655ZM382.901 66.5655V91.9495H387.901V66.5655H382.901ZM385.401 94.4495H438.449V89.4495H385.401V94.4495ZM435.949 91.9495V108.822H440.949V91.9495H435.949ZM438.449 106.322H361.689V111.322H438.449V106.322ZM364.189 108.822V10.1735H359.189V108.822H364.189ZM454.462 10.1735V7.67353H451.962V10.1735H454.462ZM527.422 15.0375L526.214 17.2265L526.229 17.2345L526.244 17.2424L527.422 15.0375ZM530.006 62.0055L531.568 63.9577L531.574 63.9531L530.006 62.0055ZM513.742 68.2375L513.409 65.7598L509.326 66.3083L511.698 69.6768L513.742 68.2375ZM542.318 108.822V111.322H547.136L544.362 107.382L542.318 108.822ZM514.958 108.822L512.878 110.208L513.62 111.322H514.958V108.822ZM489.118 70.0615L491.198 68.6748L490.456 67.5615H489.118V70.0615ZM478.174 70.0615V67.5615H475.674V70.0615H478.174ZM478.174 108.822V111.322H480.674V108.822H478.174ZM454.462 108.822H451.962V111.322H454.462V108.822ZM509.942 52.2775L511.376 54.3256L511.409 54.3021L511.442 54.2775L509.942 52.2775ZM509.638 29.1735L508.251 31.2537L508.308 31.2913L508.366 31.3258L509.638 29.1735ZM478.174 27.0455V24.5455H475.674V27.0455H478.174ZM478.174 54.4055H475.674V56.9055H478.174V54.4055ZM454.462 12.6735H498.846V7.67353H454.462V12.6735ZM498.846 12.6735C511.931 12.6735 520.918 14.304 526.214 17.2265L528.63 12.8486C522.172 9.2857 512.108 7.67353 498.846 7.67353V12.6735ZM526.244 17.2424C528.799 18.6083 530.632 20.3953 531.846 22.5923C533.068 24.8052 533.738 27.5733 533.738 30.9975H538.738C538.738 26.9231 537.939 23.2819 536.222 20.1747C534.497 17.0517 531.922 14.6081 528.601 12.8327L526.244 17.2424ZM533.738 30.9975V48.3255H538.738V30.9975H533.738ZM533.738 48.3255C533.738 53.4166 531.95 57.2319 528.439 60.058L531.574 63.9531C536.372 60.0912 538.738 54.7865 538.738 48.3255H533.738ZM528.444 60.0534C524.842 62.9357 519.889 64.8894 513.409 65.7598L514.075 70.7153C521.174 69.7617 527.064 67.5607 531.568 63.9577L528.444 60.0534ZM511.698 69.6768L540.274 110.261L544.362 107.382L515.786 66.7982L511.698 69.6768ZM542.318 106.322H514.958V111.322H542.318V106.322ZM517.038 107.435L491.198 68.6748L487.038 71.4483L512.878 110.208L517.038 107.435ZM489.118 67.5615H478.174V72.5615H489.118V67.5615ZM475.674 70.0615V108.822H480.674V70.0615H475.674ZM478.174 106.322H454.462V111.322H478.174V106.322ZM456.962 108.822V10.1735H451.962V108.822H456.962ZM498.542 56.9055C501.422 56.9055 503.93 56.7233 506.031 56.3311C508.105 55.944 509.952 55.322 511.376 54.3256L508.508 50.2295C507.905 50.6517 506.839 51.0938 505.113 51.416C503.415 51.7331 501.236 51.9055 498.542 51.9055V56.9055ZM511.442 54.2775C514.426 52.0395 515.482 48.1281 515.482 43.6135H510.482C510.482 47.6109 509.511 49.4755 508.442 50.2775L511.442 54.2775ZM515.482 43.6135V36.6215H510.482V43.6135H515.482ZM515.482 36.6215C515.482 32.4906 514.192 28.9606 510.91 27.0212L508.366 31.3258C509.543 32.0211 510.482 33.4564 510.482 36.6215H515.482ZM511.025 27.0934C508.236 25.2342 503.879 24.5455 498.542 24.5455V29.5455C503.744 29.5455 506.784 30.2755 508.251 31.2537L511.025 27.0934ZM498.542 24.5455H478.174V29.5455H498.542V24.5455ZM475.674 27.0455V54.4055H480.674V27.0455H475.674ZM478.174 56.9055H498.542V51.9055H478.174V56.9055ZM582.137 10.1735V7.67353H580.396L579.793 9.30642L582.137 10.1735ZM611.017 10.1735L613.369 9.32557L612.774 7.67353H611.017V10.1735ZM646.585 108.822V111.322H650.144L648.937 107.974L646.585 108.822ZM622.569 108.822L620.202 109.625L620.777 111.322H622.569V108.822ZM613.753 82.8295L616.121 82.0265L615.545 80.3295H613.753V82.8295ZM577.729 82.8295V80.3295H575.927L575.358 82.039L577.729 82.8295ZM569.065 108.822V111.322H570.867L571.437 109.612L569.065 108.822ZM545.657 108.822L543.313 107.954L542.067 111.322H545.657V108.822ZM608.585 67.0215V69.5215H612.063L610.955 66.2251L608.585 67.0215ZM596.121 29.9335L598.491 29.1371L597.919 27.4335H596.121V29.9335ZM595.513 29.9335V27.4335H593.716L593.144 29.1371L595.513 29.9335ZM583.049 67.0215L580.68 66.2251L579.572 69.5215H583.049V67.0215ZM582.137 12.6735H611.017V7.67353H582.137V12.6735ZM608.666 11.0215L644.234 109.669L648.937 107.974L613.369 9.32557L608.666 11.0215ZM646.585 106.322H622.569V111.322H646.585V106.322ZM624.937 108.019L616.121 82.0265L611.386 83.6326L620.202 109.625L624.937 108.019ZM613.753 80.3295H577.729V85.3295H613.753V80.3295ZM575.358 82.039L566.694 108.031L571.437 109.612L580.101 83.6201L575.358 82.039ZM569.065 106.322H545.657V111.322H569.065V106.322ZM548.002 109.689L584.482 11.0406L579.793 9.30642L543.313 107.954L548.002 109.689ZM610.955 66.2251L598.491 29.1371L593.752 30.7299L606.216 67.8179L610.955 66.2251ZM596.121 27.4335H595.513V32.4335H596.121V27.4335ZM593.144 29.1371L580.68 66.2251L585.419 67.8179L597.883 30.7299L593.144 29.1371ZM583.049 69.5215H608.585V64.5215H583.049V69.5215ZM680.325 27.0455H682.825V24.5455H680.325V27.0455ZM649.925 27.0455H647.425V29.5455H649.925V27.0455ZM649.925 10.1735V7.67353H647.425V10.1735H649.925ZM734.285 10.1735H736.785V7.67353H734.285V10.1735ZM734.285 27.0455V29.5455H736.785V27.0455H734.285ZM704.037 27.0455V24.5455H701.537V27.0455H704.037ZM704.037 108.822V111.322H706.537V108.822H704.037ZM680.325 108.822H677.825V111.322H680.325V108.822ZM680.325 24.5455H649.925V29.5455H680.325V24.5455ZM652.425 27.0455V10.1735H647.425V27.0455H652.425ZM649.925 12.6735H734.285V7.67353H649.925V12.6735ZM731.785 10.1735V27.0455H736.785V10.1735H731.785ZM734.285 24.5455H704.037V29.5455H734.285V24.5455ZM701.537 27.0455V108.822H706.537V27.0455H701.537ZM704.037 106.322H680.325V111.322H704.037V106.322ZM682.825 108.822V27.0455H677.825V108.822H682.825ZM747.923 10.1735V7.67353H745.423V10.1735H747.923ZM771.635 10.1735H774.135V7.67353H771.635V10.1735ZM771.635 108.822V111.322H774.135V108.822H771.635ZM747.923 108.822H745.423V111.322H747.923V108.822ZM747.923 12.6735H771.635V7.67353H747.923V12.6735ZM769.135 10.1735V108.822H774.135V10.1735H769.135ZM771.635 106.322H747.923V111.322H771.635V106.322ZM750.423 108.822V10.1735H745.423V108.822H750.423ZM822.236 109.278L821.851 111.748L821.86 111.749L822.236 109.278ZM807.948 105.63L808.767 103.268L808.759 103.265L808.752 103.262L807.948 105.63ZM795.332 96.8135L793.314 98.2898L793.323 98.3017L793.332 98.3135L795.332 96.8135ZM793.964 25.5255L791.8 24.2729L791.788 24.2945L791.776 24.3163L793.964 25.5255ZM802.476 16.4055L801.138 14.2935L801.128 14.3L801.118 14.3066L802.476 16.4055ZM813.724 11.5415L814.432 13.9391L814.432 13.9391L813.724 11.5415ZM826.188 9.10953L826.384 11.6018L826.393 11.6011L826.401 11.6004L826.188 9.10953ZM849.596 9.26153L849.304 11.7444L849.34 11.7487L849.376 11.7519L849.596 9.26153ZM861.148 11.3895L861.848 8.98953L861.814 8.97985L861.781 8.9711L861.148 11.3895ZM873.156 16.5575L874.511 14.4568L874.511 14.4568L873.156 16.5575ZM881.06 25.0695L878.9 26.3292L878.905 26.3382L878.911 26.3472L881.06 25.0695ZM879.996 95.9015L877.989 94.4098L877.977 94.4265L877.965 94.4435L879.996 95.9015ZM868.14 104.87L867.211 102.548L867.211 102.548L868.14 104.87ZM846.1 93.1655L846.326 95.6553L846.375 95.6508L846.423 95.6445L846.1 93.1655ZM853.244 91.6455L852.544 89.2455L852.544 89.2455L853.244 91.6455ZM858.716 88.1495L856.73 86.6309L856.723 86.6402L856.716 86.6495L858.716 88.1495ZM855.068 28.5655L853.879 30.7648L853.902 30.7774L853.926 30.7895L855.068 28.5655ZM816.46 88.1495L814.474 89.6682L814.496 89.6974L814.519 89.726L816.46 88.1495ZM822.236 91.6455L822.936 89.2455L822.923 89.2418L822.91 89.2381L822.236 91.6455ZM829.228 93.1655L828.89 95.6426L828.95 95.6508L829.011 95.6561L829.228 93.1655ZM837.436 107.842C832.07 107.842 827.131 107.494 822.612 106.806L821.86 111.749C826.663 112.48 831.857 112.842 837.436 112.842V107.842ZM822.62 106.807C818.227 106.124 813.61 104.948 808.767 103.268L807.128 107.991C812.216 109.757 817.125 111.013 821.851 111.748L822.62 106.807ZM808.752 103.262C803.799 101.58 800.034 98.9166 797.332 95.3135L793.332 98.3135C796.709 102.817 801.355 106.031 807.144 107.997L808.752 103.262ZM797.349 95.3373C794.666 91.6701 793.272 87.1903 793.272 81.7655H788.272C788.272 88.0954 789.917 93.6476 793.314 98.2898L797.349 95.3373ZM793.272 81.7655V38.5975H788.272V81.7655H793.272ZM793.272 38.5975C793.272 34.1109 794.249 30.1772 796.152 26.7347L791.776 24.3163C789.422 28.5752 788.272 33.3562 788.272 38.5975H793.272ZM796.127 26.7781C798.176 23.2398 800.747 20.5015 803.834 18.5045L801.118 14.3066C797.313 16.7682 794.21 20.1099 791.8 24.2729L796.127 26.7781ZM803.813 18.5176C806.61 16.746 810.134 15.2089 814.432 13.9391L813.015 9.14398C808.396 10.5089 804.421 12.2143 801.138 14.2935L803.813 18.5176ZM814.432 13.9391C818.756 12.6614 822.738 11.8897 826.384 11.6018L825.991 6.61728C821.936 6.9374 817.608 7.78698 813.015 9.14398L814.432 13.9391ZM826.401 11.6004C829.87 11.3031 833.547 11.1535 837.436 11.1535V6.15353C833.42 6.15353 829.599 6.30796 825.974 6.61866L826.401 11.6004ZM837.436 11.1535C842.03 11.1535 845.982 11.3536 849.304 11.7444L849.888 6.77865C846.319 6.3588 842.164 6.15353 837.436 6.15353V11.1535ZM849.376 11.7519C852.65 12.0407 856.359 12.7198 860.514 13.808L861.781 8.9711C857.424 7.82997 853.432 7.09032 849.815 6.7712L849.376 11.7519ZM860.448 13.7895C865.156 15.1629 868.919 16.7995 871.8 18.6583L874.511 14.4568C871.109 12.2622 866.867 10.4535 861.848 8.98953L860.448 13.7895ZM871.8 18.6583C874.571 20.4455 876.944 22.9764 878.9 26.3292L883.219 23.8099C880.919 19.8666 878.023 16.7229 874.511 14.4568L871.8 18.6583ZM878.911 26.3472C880.867 29.6367 881.904 33.6842 881.904 38.5975H886.904C886.904 32.9722 885.711 28.001 883.208 23.7918L878.911 26.3472ZM881.904 38.5975V81.7655H886.904V38.5975H881.904ZM881.904 81.7655C881.904 86.7629 880.572 90.9368 877.989 94.4098L882.002 97.3933C885.297 92.9623 886.904 87.7122 886.904 81.7655H881.904ZM877.965 94.4435C875.438 97.9629 871.891 100.676 867.211 102.548L869.068 107.191C874.521 105.009 878.878 101.744 882.026 97.3595L877.965 94.4435ZM867.211 102.548C858.429 106.061 848.516 107.842 837.436 107.842V112.842C849.054 112.842 859.611 110.974 869.068 107.191L867.211 102.548ZM837.74 95.9695C841.126 95.9695 843.995 95.8672 846.326 95.6553L845.873 90.6758C843.746 90.8692 841.041 90.9695 837.74 90.9695V95.9695ZM846.423 95.6445C848.89 95.3227 851.398 94.7881 853.944 94.0455L852.544 89.2455C850.226 89.9217 847.97 90.4004 845.776 90.6865L846.423 95.6445ZM853.944 94.0455C856.763 93.2232 859.101 91.8019 860.716 89.6495L856.716 86.6495C855.898 87.7399 854.588 88.6492 852.544 89.2455L853.944 94.0455ZM860.702 89.6682C862.406 87.4389 863.192 84.7518 863.192 81.7655H858.192C858.192 83.8459 857.66 85.4148 856.73 86.6309L860.702 89.6682ZM863.192 81.7655V38.4455H858.192V81.7655H863.192ZM863.192 38.4455C863.192 35.7802 862.654 33.3439 861.458 31.2428C860.254 29.1274 858.466 27.5004 856.21 26.3416L853.926 30.7895C855.418 31.556 856.442 32.5384 857.113 33.7163C857.792 34.9085 858.192 36.4496 858.192 38.4455H863.192ZM856.256 26.3663C851.948 24.0372 845.608 23.0255 837.588 23.0255V28.0255C845.375 28.0255 850.689 29.0405 853.879 30.7648L856.256 26.3663ZM837.588 23.0255C829.576 23.0255 823.258 23.9853 818.966 26.1896L821.25 30.6374C824.456 28.9911 829.791 28.0255 837.588 28.0255V23.0255ZM818.966 26.1896C816.699 27.3535 814.91 29.0001 813.709 31.143C812.517 33.2687 811.984 35.7385 811.984 38.4455H816.984C816.984 36.3899 817.387 34.8064 818.07 33.588C818.744 32.387 819.767 31.3989 821.25 30.6374L818.966 26.1896ZM811.984 38.4455V81.7655H816.984V38.4455H811.984ZM811.984 81.7655C811.984 84.7518 812.769 87.4389 814.474 89.6682L818.446 86.6309C817.516 85.4148 816.984 83.8459 816.984 81.7655H811.984ZM814.519 89.726C816.238 91.8419 818.66 93.2406 821.562 94.0529L822.91 89.2381C820.744 88.6318 819.315 87.6999 818.4 86.5731L814.519 89.726ZM821.536 94.0455C824.072 94.7852 826.524 95.32 828.89 95.6426L829.565 90.6885C827.473 90.4031 825.264 89.9245 822.936 89.2455L821.536 94.0455ZM829.011 95.6561C831.437 95.8671 834.351 95.9695 837.74 95.9695V90.9695C834.44 90.9695 831.68 90.8693 829.444 90.6749L829.011 95.6561ZM903.486 10.1735V7.67353H900.986V10.1735H903.486ZM927.502 10.1735L929.541 8.72784L928.794 7.67353H927.502V10.1735ZM975.23 77.5095L973.19 78.9552L977.73 85.3598V77.5095H975.23ZM975.23 10.1735V7.67353H972.73V10.1735H975.23ZM996.358 10.1735H998.858V7.67353H996.358V10.1735ZM996.358 108.822V111.322H998.858V108.822H996.358ZM972.342 108.822L970.291 110.252L971.038 111.322H972.342V108.822ZM924.614 40.4215L926.664 38.9909L922.114 32.4699V40.4215H924.614ZM924.614 108.822V111.322H927.114V108.822H924.614ZM903.486 108.822H900.986V111.322H903.486V108.822ZM903.486 12.6735H927.502V7.67353H903.486V12.6735ZM925.462 11.6192L973.19 78.9552L977.269 76.0638L929.541 8.72784L925.462 11.6192ZM977.73 77.5095V10.1735H972.73V77.5095H977.73ZM975.23 12.6735H996.358V7.67353H975.23V12.6735ZM993.858 10.1735V108.822H998.858V10.1735H993.858ZM996.358 106.322H972.342V111.322H996.358V106.322ZM974.392 107.391L926.664 38.9909L922.563 41.8521L970.291 110.252L974.392 107.391ZM922.114 40.4215V108.822H927.114V40.4215H922.114ZM924.614 106.322H903.486V111.322H924.614V106.322ZM905.986 108.822V10.1735H900.986V108.822H905.986ZM442.755 285.278L442.371 287.748L442.379 287.749L442.755 285.278ZM428.467 281.63L429.287 279.268L429.279 279.265L429.271 279.262L428.467 281.63ZM415.851 272.814L413.834 274.29L413.842 274.302L413.851 274.314L415.851 272.814ZM414.483 201.526L412.32 200.273L412.307 200.295L412.295 200.316L414.483 201.526ZM422.995 192.406L421.658 190.293L421.647 190.3L421.637 190.307L422.995 192.406ZM434.243 187.542L434.952 189.939L434.952 189.939L434.243 187.542ZM446.707 185.11L446.904 187.602L446.912 187.601L446.921 187.6L446.707 185.11ZM470.115 185.262L469.823 187.744L469.859 187.749L469.895 187.752L470.115 185.262ZM481.667 187.39L482.367 184.99L482.334 184.98L482.301 184.971L481.667 187.39ZM493.675 192.558L495.031 190.457L495.03 190.457L493.675 192.558ZM501.579 201.07L499.42 202.329L499.425 202.338L499.43 202.347L501.579 201.07ZM500.515 271.902L498.509 270.41L498.497 270.427L498.484 270.444L500.515 271.902ZM488.659 280.87L487.731 278.548L487.731 278.548L488.659 280.87ZM466.619 269.166L466.846 271.655L466.894 271.651L466.943 271.645L466.619 269.166ZM473.763 267.646L473.063 265.246L473.063 265.246L473.763 267.646ZM479.235 264.15L477.249 262.631L477.242 262.64L477.235 262.65L479.235 264.15ZM475.587 204.566L474.398 206.765L474.422 206.777L474.445 206.789L475.587 204.566ZM436.979 264.15L434.993 265.668L435.016 265.697L435.039 265.726L436.979 264.15ZM442.755 267.646L443.455 265.246L443.442 265.242L443.429 265.238L442.755 267.646ZM449.747 269.166L449.409 271.643L449.47 271.651L449.531 271.656L449.747 269.166ZM457.955 283.842C452.59 283.842 447.65 283.494 443.131 282.806L442.379 287.749C447.183 288.48 452.377 288.842 457.955 288.842V283.842ZM443.139 282.807C438.746 282.124 434.13 280.948 429.287 279.268L427.648 283.991C432.736 285.757 437.644 287.013 442.371 287.748L443.139 282.807ZM429.271 279.262C424.318 277.58 420.553 274.917 417.851 271.314L413.851 274.314C417.229 278.817 421.875 282.031 427.663 283.997L429.271 279.262ZM417.869 271.337C415.185 267.67 413.791 263.19 413.791 257.766H408.791C408.791 264.095 410.437 269.648 413.834 274.29L417.869 271.337ZM413.791 257.766V214.598H408.791V257.766H413.791ZM413.791 214.598C413.791 210.111 414.769 206.177 416.671 202.735L412.295 200.316C409.941 204.575 408.791 209.356 408.791 214.598H413.791ZM416.647 202.778C418.695 199.24 421.267 196.502 424.353 194.504L421.637 190.307C417.833 192.768 414.73 196.11 412.32 200.273L416.647 202.778ZM424.333 194.518C427.13 192.746 430.654 191.209 434.952 189.939L433.535 185.144C428.915 186.509 424.94 188.214 421.658 190.293L424.333 194.518ZM434.952 189.939C439.276 188.661 443.257 187.89 446.904 187.602L446.51 182.617C442.456 182.937 438.128 183.787 433.535 185.144L434.952 189.939ZM446.921 187.6C450.389 187.303 454.067 187.154 457.955 187.154V182.154C453.94 182.154 450.119 182.308 446.494 182.619L446.921 187.6ZM457.955 187.154C462.55 187.154 466.501 187.354 469.823 187.744L470.407 182.779C466.839 182.359 462.683 182.154 457.955 182.154V187.154ZM469.895 187.752C473.17 188.041 476.879 188.72 481.034 189.808L482.301 184.971C477.944 183.83 473.952 183.09 470.335 182.771L469.895 187.752ZM480.967 189.79C485.676 191.163 489.439 192.8 492.32 194.658L495.03 190.457C491.629 188.262 487.387 186.454 482.367 184.99L480.967 189.79ZM492.32 194.658C495.09 196.445 497.464 198.976 499.42 202.329L503.739 199.81C501.438 195.867 498.543 192.723 495.031 190.457L492.32 194.658ZM499.43 202.347C501.386 205.637 502.423 209.684 502.423 214.598H507.423C507.423 208.972 506.231 204.001 503.728 199.792L499.43 202.347ZM502.423 214.598V257.766H507.423V214.598H502.423ZM502.423 257.766C502.423 262.763 501.091 266.937 498.509 270.41L502.521 273.393C505.816 268.962 507.423 263.712 507.423 257.766H502.423ZM498.484 270.444C495.958 273.963 492.411 276.676 487.731 278.548L489.588 283.191C495.041 281.009 499.398 277.744 502.546 273.36L498.484 270.444ZM487.731 278.548C478.948 282.061 469.035 283.842 457.955 283.842V288.842C469.574 288.842 480.13 286.974 489.588 283.191L487.731 278.548ZM458.259 271.97C461.646 271.97 464.514 271.867 466.846 271.655L466.393 266.676C464.266 266.869 461.561 266.97 458.259 266.97V271.97ZM466.943 271.645C469.41 271.323 471.917 270.788 474.463 270.046L473.063 265.246C470.745 265.922 468.49 266.4 466.296 266.687L466.943 271.645ZM474.463 270.046C477.283 269.223 479.621 267.802 481.235 265.65L477.235 262.65C476.417 263.74 475.108 264.649 473.063 265.246L474.463 270.046ZM481.221 265.668C482.926 263.439 483.711 260.752 483.711 257.766H478.711C478.711 259.846 478.179 261.415 477.249 262.631L481.221 265.668ZM483.711 257.766V214.446H478.711V257.766H483.711ZM483.711 214.446C483.711 211.78 483.174 209.344 481.978 207.243C480.774 205.127 478.986 203.5 476.729 202.342L474.445 206.789C475.938 207.556 476.962 208.538 477.633 209.716C478.311 210.908 478.711 212.45 478.711 214.446H483.711ZM476.776 202.366C472.467 200.037 466.128 199.026 458.107 199.026V204.026C465.895 204.026 471.208 205.041 474.398 206.765L476.776 202.366ZM458.107 199.026C450.096 199.026 443.778 199.985 439.485 202.19L441.769 206.637C444.975 204.991 450.31 204.026 458.107 204.026V199.026ZM439.485 202.19C437.219 203.354 435.43 205 434.228 207.143C433.037 209.269 432.503 211.739 432.503 214.446H437.503C437.503 212.39 437.907 210.806 438.59 209.588C439.263 208.387 440.286 207.399 441.769 206.637L439.485 202.19ZM432.503 214.446V257.766H437.503V214.446H432.503ZM432.503 257.766C432.503 260.752 433.289 263.439 434.993 265.668L438.965 262.631C438.035 261.415 437.503 259.846 437.503 257.766H432.503ZM435.039 265.726C436.758 267.842 439.18 269.241 442.081 270.053L443.429 265.238C441.264 264.632 439.835 263.7 438.919 262.573L435.039 265.726ZM442.055 270.046C444.591 270.785 447.043 271.32 449.409 271.643L450.085 266.688C447.992 266.403 445.783 265.924 443.455 265.246L442.055 270.046ZM449.531 271.656C451.957 271.867 454.871 271.97 458.259 271.97V266.97C454.96 266.97 452.199 266.869 449.964 266.675L449.531 271.656ZM524.005 186.174V183.674H521.505V186.174H524.005ZM600.765 186.174H603.265V183.674H600.765V186.174ZM600.765 203.046V205.546H603.265V203.046H600.765ZM547.717 203.046V200.546H545.217V203.046H547.717ZM547.717 227.214H545.217V229.714H547.717V227.214ZM595.749 227.214H598.249V224.714H595.749V227.214ZM595.749 244.086V246.586H598.249V244.086H595.749ZM547.717 244.086V241.586H545.217V244.086H547.717ZM547.717 284.822V287.322H550.217V284.822H547.717ZM524.005 284.822H521.505V287.322H524.005V284.822ZM524.005 188.674H600.765V183.674H524.005V188.674ZM598.265 186.174V203.046H603.265V186.174H598.265ZM600.765 200.546H547.717V205.546H600.765V200.546ZM545.217 203.046V227.214H550.217V203.046H545.217ZM547.717 229.714H595.749V224.714H547.717V229.714ZM593.249 227.214V244.086H598.249V227.214H593.249ZM595.749 241.586H547.717V246.586H595.749V241.586ZM545.217 244.086V284.822H550.217V244.086H545.217ZM547.717 282.322H524.005V287.322H547.717V282.322ZM526.505 284.822V186.174H521.505V284.822H526.505ZM58.5241 362.174V359.674H56.7831L56.1793 361.306L58.5241 362.174ZM87.4041 362.174L89.7559 361.326L89.1603 359.674H87.4041V362.174ZM122.972 460.822V463.322H126.531L125.324 459.974L122.972 460.822ZM98.9561 460.822L96.5886 461.625L97.1642 463.322H98.9561V460.822ZM90.1401 434.83L92.5076 434.027L91.9321 432.33H90.1401V434.83ZM54.1161 434.83V432.33H52.3142L51.7444 434.039L54.1161 434.83ZM45.4521 460.822V463.322H47.254L47.8238 461.612L45.4521 460.822ZM22.0441 460.822L19.6993 459.954L18.4541 463.322H22.0441V460.822ZM84.9721 419.022V421.522H88.4497L87.3419 418.225L84.9721 419.022ZM72.5081 381.934L74.8779 381.137L74.3054 379.434H72.5081V381.934ZM71.9001 381.934V379.434H70.1029L69.5304 381.137L71.9001 381.934ZM59.4361 419.022L57.0664 418.225L55.9586 421.522H59.4361V419.022ZM58.5241 364.674H87.4041V359.674H58.5241V364.674ZM85.0523 363.021L120.62 461.669L125.324 459.974L89.7559 361.326L85.0523 363.021ZM122.972 458.322H98.9561V463.322H122.972V458.322ZM101.324 460.019L92.5076 434.027L87.7726 435.633L96.5886 461.625L101.324 460.019ZM90.1401 432.33H54.1161V437.33H90.1401V432.33ZM51.7444 434.039L43.0804 460.031L47.8238 461.612L56.4878 435.62L51.7444 434.039ZM45.4521 458.322H22.0441V463.322H45.4521V458.322ZM24.3889 461.689L60.8689 363.041L56.1793 361.306L19.6993 459.954L24.3889 461.689ZM87.3419 418.225L74.8779 381.137L70.1384 382.73L82.6024 419.818L87.3419 418.225ZM72.5081 379.434H71.9001V384.434H72.5081V379.434ZM69.5304 381.137L57.0664 418.225L61.8059 419.818L74.2699 382.73L69.5304 381.137ZM59.4361 421.522H84.9721V416.522H59.4361V421.522ZM133.911 362.174V359.674H131.411V362.174H133.911ZM203.223 364.91L202.566 367.321L202.583 367.326L202.6 367.331L203.223 364.91ZM217.967 374.03L219.995 372.568L219.995 372.568L217.967 374.03ZM218.271 449.726L220.295 451.193L220.304 451.181L220.312 451.169L218.271 449.726ZM203.831 458.39L204.42 460.819L204.438 460.815L204.455 460.811L203.831 458.39ZM133.911 460.822H131.411V463.322H133.911V460.822ZM189.543 443.19L189.929 445.66L189.96 445.655L189.991 445.649L189.543 443.19ZM196.687 439.846L194.864 438.136L194.834 438.167L194.806 438.199L196.687 439.846ZM193.343 381.934L192.176 384.144L192.213 384.164L192.25 384.182L193.343 381.934ZM157.623 379.046V376.546H155.123V379.046H157.623ZM157.623 443.95H155.123V446.45H157.623V443.95ZM133.911 364.674H175.863V359.674H133.911V364.674ZM175.863 364.674C187.32 364.674 196.187 365.582 202.566 367.321L203.881 362.498C196.884 360.589 187.511 359.674 175.863 359.674V364.674ZM202.6 367.331C208.887 368.95 213.228 371.73 215.939 375.492L219.995 372.568C216.425 367.615 210.936 364.315 203.847 362.489L202.6 367.331ZM215.939 375.492C218.667 379.274 220.179 384.722 220.179 392.118H225.179C225.179 384.111 223.551 377.499 219.995 372.568L215.939 375.492ZM220.179 392.118V432.246H225.179V392.118H220.179ZM220.179 432.246C220.179 439.46 218.759 444.706 216.23 448.282L220.312 451.169C223.661 446.435 225.179 440.029 225.179 432.246H220.179ZM216.247 448.258C213.76 451.689 209.545 454.336 203.208 455.969L204.455 460.811C211.494 458.997 216.905 455.869 220.295 451.193L216.247 448.258ZM203.242 455.96C196.837 457.513 187.793 458.322 176.015 458.322V463.322C187.949 463.322 197.45 462.509 204.42 460.819L203.242 455.96ZM176.015 458.322H133.911V463.322H176.015V458.322ZM136.411 460.822V362.174H131.411V460.822H136.411ZM174.951 446.45C181.467 446.45 186.489 446.197 189.929 445.66L189.157 440.72C186.113 441.195 181.407 441.45 174.951 441.45V446.45ZM189.991 445.649C193.589 444.995 196.617 443.723 198.569 441.492L194.806 438.199C193.921 439.211 192.185 440.168 189.096 440.73L189.991 445.649ZM198.511 441.555C200.652 439.272 201.467 435.988 201.467 432.246H196.467C196.467 435.393 195.763 437.176 194.864 438.136L198.511 441.555ZM201.467 432.246V391.662H196.467V432.246H201.467ZM201.467 391.662C201.467 388.998 200.931 386.566 199.726 384.482C198.511 382.381 196.707 380.79 194.437 379.685L192.25 384.182C193.729 384.901 194.737 385.843 195.397 386.985C196.067 388.143 196.467 389.664 196.467 391.662H201.467ZM194.51 379.723C190.298 377.5 183.904 376.546 175.711 376.546V381.546C183.732 381.546 189.093 382.517 192.176 384.144L194.51 379.723ZM175.711 376.546H157.623V381.546H175.711V376.546ZM155.123 379.046V443.95H160.123V379.046H155.123ZM157.623 446.45H174.951V441.45H157.623V446.45ZM231.185 362.174V359.674H227.632L228.832 363.018L231.185 362.174ZM255.201 362.174L257.572 361.379L257 359.674H255.201V362.174ZM281.649 441.062L279.279 441.856L279.851 443.562H281.649V441.062ZM282.257 441.062V443.562H284.056L284.628 441.856L282.257 441.062ZM308.705 362.174V359.674H306.907L306.335 361.379L308.705 362.174ZM332.113 362.174L334.458 363.041L335.703 359.674H332.113V362.174ZM295.633 460.822V463.322H297.374L297.978 461.689L295.633 460.822ZM266.601 460.822L264.248 461.666L264.843 463.322H266.601V460.822ZM231.185 364.674H255.201V359.674H231.185V364.674ZM252.831 362.968L279.279 441.856L284.02 440.267L257.572 361.379L252.831 362.968ZM281.649 443.562H282.257V438.562H281.649V443.562ZM284.628 441.856L311.076 362.968L306.335 361.379L279.887 440.267L284.628 441.856ZM308.705 364.674H332.113V359.674H308.705V364.674ZM329.769 361.306L293.289 459.954L297.978 461.689L334.458 363.041L329.769 361.306ZM295.633 458.322H266.601V463.322H295.633V458.322ZM268.954 459.977L233.538 361.329L228.832 363.018L264.248 461.666L268.954 459.977ZM342.763 362.174V359.674H340.263V362.174H342.763ZM418.003 362.174H420.503V359.674H418.003V362.174ZM418.003 379.046V381.546H420.503V379.046H418.003ZM366.475 379.046V376.546H363.975V379.046H366.475ZM366.475 401.694H363.975V404.194H366.475V401.694ZM412.987 401.694H415.487V399.194H412.987V401.694ZM412.987 418.566V421.066H415.487V418.566H412.987ZM366.475 418.566V416.066H363.975V418.566H366.475ZM366.475 443.95H363.975V446.45H366.475V443.95ZM419.523 443.95H422.023V441.45H419.523V443.95ZM419.523 460.822V463.322H422.023V460.822H419.523ZM342.763 460.822H340.263V463.322H342.763V460.822ZM342.763 364.674H418.003V359.674H342.763V364.674ZM415.503 362.174V379.046H420.503V362.174H415.503ZM418.003 376.546H366.475V381.546H418.003V376.546ZM363.975 379.046V401.694H368.975V379.046H363.975ZM366.475 404.194H412.987V399.194H366.475V404.194ZM410.487 401.694V418.566H415.487V401.694H410.487ZM412.987 416.066H366.475V421.066H412.987V416.066ZM363.975 418.566V443.95H368.975V418.566H363.975ZM366.475 446.45H419.523V441.45H366.475V446.45ZM417.023 443.95V460.822H422.023V443.95H417.023ZM419.523 458.322H342.763V463.322H419.523V458.322ZM345.263 460.822V362.174H340.263V460.822H345.263ZM435.536 362.174V359.674H433.036V362.174H435.536ZM459.552 362.174L461.592 360.728L460.845 359.674H459.552V362.174ZM507.28 429.51L505.241 430.955L509.78 437.36V429.51H507.28ZM507.28 362.174V359.674H504.78V362.174H507.28ZM528.408 362.174H530.908V359.674H528.408V362.174ZM528.408 460.822V463.322H530.908V460.822H528.408ZM504.392 460.822L502.342 462.252L503.088 463.322H504.392V460.822ZM456.664 392.422L458.715 390.991L454.164 384.47V392.422H456.664ZM456.664 460.822V463.322H459.164V460.822H456.664ZM435.536 460.822H433.036V463.322H435.536V460.822ZM435.536 364.674H459.552V359.674H435.536V364.674ZM457.513 363.619L505.241 430.955L509.32 428.064L461.592 360.728L457.513 363.619ZM509.78 429.51V362.174H504.78V429.51H509.78ZM507.28 364.674H528.408V359.674H507.28V364.674ZM525.908 362.174V460.822H530.908V362.174H525.908ZM528.408 458.322H504.392V463.322H528.408V458.322ZM506.443 459.391L458.715 390.991L454.614 393.852L502.342 462.252L506.443 459.391ZM454.164 392.422V460.822H459.164V392.422H454.164ZM456.664 458.322H435.536V463.322H456.664V458.322ZM438.036 460.822V362.174H433.036V460.822H438.036ZM572.485 379.046H574.985V376.546H572.485V379.046ZM542.085 379.046H539.585V381.546H542.085V379.046ZM542.085 362.174V359.674H539.585V362.174H542.085ZM626.445 362.174H628.945V359.674H626.445V362.174ZM626.445 379.046V381.546H628.945V379.046H626.445ZM596.197 379.046V376.546H593.697V379.046H596.197ZM596.197 460.822V463.322H598.697V460.822H596.197ZM572.485 460.822H569.985V463.322H572.485V460.822ZM572.485 376.546H542.085V381.546H572.485V376.546ZM544.585 379.046V362.174H539.585V379.046H544.585ZM542.085 364.674H626.445V359.674H542.085V364.674ZM623.945 362.174V379.046H628.945V362.174H623.945ZM626.445 376.546H596.197V381.546H626.445V376.546ZM593.697 379.046V460.822H598.697V379.046H593.697ZM596.197 458.322H572.485V463.322H596.197V458.322ZM574.985 460.822V379.046H569.985V460.822H574.985ZM639.779 362.174V359.674H637.279V362.174H639.779ZM663.491 362.174H665.991V359.674H663.491V362.174ZM667.747 443.038L666.45 445.175L666.494 445.201L666.54 445.226L667.747 443.038ZM697.387 443.038L698.662 445.188L698.673 445.181L698.685 445.175L697.387 443.038ZM701.643 362.174V359.674H699.143V362.174H701.643ZM725.355 362.174H727.855V359.674H725.355V362.174ZM682.491 459.842C668.454 459.842 658.364 457.479 651.847 453.12C645.509 448.879 642.279 442.566 642.279 433.766H637.279C637.279 444.015 641.168 451.991 649.067 457.275C656.788 462.441 668.054 464.842 682.491 464.842V459.842ZM642.279 433.766V362.174H637.279V433.766H642.279ZM639.779 364.674H663.491V359.674H639.779V364.674ZM660.991 362.174V433.766H665.991V362.174H660.991ZM660.991 433.766C660.991 438.76 662.617 442.847 666.45 445.175L669.045 440.901C667.203 439.782 665.991 437.688 665.991 433.766H660.991ZM666.54 445.226C670.075 447.177 675.652 447.97 682.795 447.97V442.97C675.752 442.97 671.297 442.141 668.955 440.849L666.54 445.226ZM682.795 447.97C689.817 447.97 695.293 447.185 698.662 445.188L696.113 440.887C694.01 442.133 689.758 442.97 682.795 442.97V447.97ZM698.685 445.175C702.518 442.847 704.143 438.76 704.143 433.766H699.143C699.143 437.688 697.932 439.782 696.09 440.901L698.685 445.175ZM704.143 433.766V362.174H699.143V433.766H704.143ZM701.643 364.674H725.355V359.674H701.643V364.674ZM722.855 362.174V433.766H727.855V362.174H722.855ZM722.855 433.766C722.855 442.563 719.616 448.875 713.252 453.117C706.71 457.479 696.58 459.842 682.491 459.842V464.842C696.978 464.842 708.28 462.441 716.026 457.278C723.951 451.995 727.855 444.019 727.855 433.766H722.855ZM746.364 362.174V359.674H743.864V362.174H746.364ZM819.324 367.038L818.117 369.226L818.131 369.235L818.146 369.242L819.324 367.038ZM821.908 414.006L823.47 415.958L823.476 415.953L821.908 414.006ZM805.644 420.238L805.312 417.76L801.229 418.308L803.6 421.677L805.644 420.238ZM834.22 460.822V463.322H839.038L836.265 459.382L834.22 460.822ZM806.86 460.822L804.78 462.208L805.523 463.322H806.86V460.822ZM781.02 422.062L783.101 420.675L782.358 419.562H781.02V422.062ZM770.076 422.062V419.562H767.576V422.062H770.076ZM770.076 460.822V463.322H772.576V460.822H770.076ZM746.364 460.822H743.864V463.322H746.364V460.822ZM801.844 404.278L803.278 406.326L803.312 406.302L803.344 406.278L801.844 404.278ZM801.54 381.174L800.154 383.254L800.21 383.291L800.269 383.326L801.54 381.174ZM770.076 379.046V376.546H767.576V379.046H770.076ZM770.076 406.406H767.576V408.906H770.076V406.406ZM746.364 364.674H790.748V359.674H746.364V364.674ZM790.748 364.674C803.833 364.674 812.82 366.304 818.117 369.226L820.532 364.849C814.074 361.286 804.011 359.674 790.748 359.674V364.674ZM818.146 369.242C820.702 370.608 822.535 372.395 823.748 374.592C824.971 376.805 825.64 379.573 825.64 382.998H830.64C830.64 378.923 829.841 375.282 828.125 372.175C826.4 369.052 823.825 366.608 820.503 364.833L818.146 369.242ZM825.64 382.998V400.326H830.64V382.998H825.64ZM825.64 400.326C825.64 405.417 823.852 409.232 820.341 412.058L823.476 415.953C828.274 412.091 830.64 406.786 830.64 400.326H825.64ZM820.347 412.053C816.744 414.936 811.791 416.889 805.312 417.76L805.977 422.715C813.076 421.762 818.966 419.561 823.47 415.958L820.347 412.053ZM803.6 421.677L832.176 462.261L836.265 459.382L807.689 418.798L803.6 421.677ZM834.22 458.322H806.86V463.322H834.22V458.322ZM808.941 459.435L783.101 420.675L778.94 423.448L804.78 462.208L808.941 459.435ZM781.02 419.562H770.076V424.562H781.02V419.562ZM767.576 422.062V460.822H772.576V422.062H767.576ZM770.076 458.322H746.364V463.322H770.076V458.322ZM748.864 460.822V362.174H743.864V460.822H748.864ZM790.444 408.906C793.324 408.906 795.832 408.723 797.933 408.331C800.007 407.944 801.855 407.322 803.278 406.326L800.411 402.229C799.808 402.652 798.742 403.094 797.016 403.416C795.317 403.733 793.138 403.906 790.444 403.906V408.906ZM803.344 406.278C806.328 404.04 807.384 400.128 807.384 395.614H802.384C802.384 399.611 801.414 401.476 800.344 402.278L803.344 406.278ZM807.384 395.614V388.622H802.384V395.614H807.384ZM807.384 388.622C807.384 384.491 806.094 380.961 802.812 379.021L800.269 383.326C801.445 384.021 802.384 385.456 802.384 388.622H807.384ZM802.927 379.093C800.138 377.234 795.781 376.546 790.444 376.546V381.546C795.646 381.546 798.687 382.275 800.154 383.254L802.927 379.093ZM790.444 376.546H770.076V381.546H790.444V376.546ZM767.576 379.046V406.406H772.576V379.046H767.576ZM770.076 408.906H790.444V403.906H770.076V408.906ZM847.896 362.174V359.674H845.396V362.174H847.896ZM923.136 362.174H925.636V359.674H923.136V362.174ZM923.136 379.046V381.546H925.636V379.046H923.136ZM871.608 379.046V376.546H869.108V379.046H871.608ZM871.608 401.694H869.108V404.194H871.608V401.694ZM918.12 401.694H920.62V399.194H918.12V401.694ZM918.12 418.566V421.066H920.62V418.566H918.12ZM871.608 418.566V416.066H869.108V418.566H871.608ZM871.608 443.95H869.108V446.45H871.608V443.95ZM924.656 443.95H927.156V441.45H924.656V443.95ZM924.656 460.822V463.322H927.156V460.822H924.656ZM847.896 460.822H845.396V463.322H847.896V460.822ZM847.896 364.674H923.136V359.674H847.896V364.674ZM920.636 362.174V379.046H925.636V362.174H920.636ZM923.136 376.546H871.608V381.546H923.136V376.546ZM869.108 379.046V401.694H874.108V379.046H869.108ZM871.608 404.194H918.12V399.194H871.608V404.194ZM915.62 401.694V418.566H920.62V401.694H915.62ZM918.12 416.066H871.608V421.066H918.12V416.066ZM869.108 418.566V443.95H874.108V418.566H869.108ZM871.608 446.45H924.656V441.45H871.608V446.45ZM922.156 443.95V460.822H927.156V443.95H922.156ZM924.656 458.322H847.896V463.322H924.656V458.322ZM850.396 460.822V362.174H845.396V460.822H850.396ZM937.629 459.606H935.129V461.799L937.304 462.084L937.629 459.606ZM937.629 441.518L938.007 439.046L935.129 438.606V441.518H937.629ZM989.765 421.454L988.049 423.271L988.073 423.294L988.098 423.317L989.765 421.454ZM946.445 366.734L947.672 368.912L947.672 368.912L946.445 366.734ZM1011.5 362.63H1014V360.38L1011.76 360.143L1011.5 362.63ZM1011.5 380.262L1011.21 382.744L1014 383.077V380.262H1011.5ZM963.773 379.502L962.689 377.249L962.686 377.25L963.773 379.502ZM1008.77 407.166L1007.18 409.099L1007.18 409.099L1008.77 407.166ZM1003.75 456.566L1002.64 454.324L1002.61 454.338L1002.59 454.352L1003.75 456.566ZM990.221 460.974L989.818 458.506L989.789 458.511L989.76 458.516L990.221 460.974ZM972.589 459.842C963.313 459.842 951.776 458.943 937.955 457.127L937.304 462.084C951.248 463.916 963.018 464.842 972.589 464.842V459.842ZM940.129 459.606V441.518H935.129V459.606H940.129ZM937.251 443.989C954.457 446.62 966.393 447.97 972.893 447.97V442.97C966.828 442.97 955.254 441.684 938.007 439.046L937.251 443.989ZM972.893 447.97C979.613 447.97 985.033 447.117 988.858 445.146C990.807 444.141 992.41 442.811 993.517 441.099C994.633 439.374 995.153 437.405 995.153 435.286H990.153C990.153 436.561 989.85 437.562 989.319 438.383C988.78 439.217 987.912 440.008 986.568 440.701C983.806 442.125 979.346 442.97 972.893 442.97V447.97ZM995.153 435.286V428.902H990.153V435.286H995.153ZM995.153 428.902C995.153 425.143 994.017 421.903 991.432 419.59L988.098 423.317C989.364 424.449 990.153 426.175 990.153 428.902H995.153ZM991.482 419.636C988.917 417.214 984.712 416.37 979.733 416.37V421.37C984.483 421.37 986.965 422.248 988.049 423.271L991.482 419.636ZM979.733 416.37H968.181V421.37H979.733V416.37ZM968.181 416.37C957.603 416.37 950.131 414.257 945.34 410.452C940.66 406.734 938.153 401.085 938.153 393.03H933.153C933.153 402.201 936.068 409.472 942.23 414.367C948.282 419.175 957.074 421.37 968.181 421.37V416.37ZM938.153 393.03V385.734H933.153V393.03H938.153ZM938.153 385.734C938.153 377.975 941.305 372.499 947.672 368.912L945.218 364.555C937.196 369.075 933.153 376.266 933.153 385.734H938.153ZM947.672 368.912C954.288 365.185 965.15 363.154 980.645 363.154V358.154C964.93 358.154 952.992 360.176 945.218 364.555L947.672 368.912ZM980.645 363.154C988.63 363.154 998.82 363.803 1011.24 365.116L1011.76 360.143C999.254 358.821 988.873 358.154 980.645 358.154V363.154ZM1009 362.63V380.262H1014V362.63H1009ZM1011.8 377.779C996.507 375.956 985.83 375.026 979.885 375.026V380.026C985.493 380.026 995.892 380.919 1011.21 382.744L1011.8 377.779ZM979.885 375.026C975.824 375.026 972.371 375.192 969.549 375.538C966.77 375.879 964.424 376.414 962.689 377.249L964.858 381.754C965.859 381.272 967.566 380.819 970.158 380.501C972.706 380.188 975.941 380.026 979.885 380.026V375.026ZM962.686 377.25C960.901 378.112 959.413 379.295 958.38 380.862C957.34 382.439 956.865 384.25 956.865 386.19H961.865C961.865 385.089 962.125 384.265 962.555 383.613C962.991 382.951 963.707 382.31 964.86 381.753L962.686 377.25ZM956.865 386.19V393.182H961.865V386.19H956.865ZM956.865 393.182C956.865 396.626 958.401 399.393 961.358 401.146C964.109 402.778 967.914 403.434 972.437 403.434V398.434C968.245 398.434 965.514 397.798 963.908 396.845C962.508 396.015 961.865 394.905 961.865 393.182H956.865ZM972.437 403.434H984.293V398.434H972.437V403.434ZM984.293 403.434C995.339 403.434 1002.78 405.494 1007.18 409.099L1010.35 405.232C1004.61 400.528 995.743 398.434 984.293 398.434V403.434ZM1007.18 409.099C1011.5 412.644 1013.87 418.161 1013.87 426.166H1018.87C1018.87 417.146 1016.16 409.996 1010.35 405.232L1007.18 409.099ZM1013.87 426.166V432.702H1018.87V426.166H1013.87ZM1013.87 432.702C1013.87 443.793 1009.97 450.705 1002.64 454.324L1004.86 458.807C1014.35 454.117 1018.87 445.119 1018.87 432.702H1013.87ZM1002.59 454.352C998.794 456.343 994.545 457.735 989.818 458.506L990.624 463.441C995.828 462.591 1000.6 461.044 1004.91 458.779L1002.59 454.352ZM989.76 458.516C985.094 459.391 979.38 459.842 972.589 459.842V464.842C979.579 464.842 985.62 464.38 990.682 463.431L989.76 458.516Z" fill="url(#paint1_radial)"/>
</g>
<defs>
<filter id="filter0_d" x="0.454163" y="0.153564" width="1020.41" height="478.688" filterUnits="userSpaceOnUse" color-interpolation-filters="sRGB">
<feFlood flood-opacity="0" result="BackgroundImageFix"/>
<feColorMatrix in="SourceAlpha" type="matrix" values="0 0 0 0 0 0 0 0 0 0 0 0 0 0 0 0 0 0 127 0"/>
<feOffset dx="-8" dy="4"/>
<feGaussianBlur stdDeviation="5"/>
<feColorMatrix type="matrix" values="0 0 0 0 0 0 0 0 0 0 0 0 0 0 0 0 0 0 0.36 0"/>
<feBlend mode="normal" in2="BackgroundImageFix" result="effect1_dropShadow"/>
<feBlend mode="normal" in="SourceGraphic" in2="effect1_dropShadow" result="shape"/>
</filter>
<linearGradient id="paint0_linear" x1="436.652" y1="-100.643" x2="565.094" y2="557.001" gradientUnits="userSpaceOnUse">
<stop offset="0.100233" stop-color="#167198" stop-opacity="0.54"/>
<stop offset="0.989085" stop-color="#4B00E4" stop-opacity="0.26"/>
</linearGradient>
<radialGradient id="paint1_radial" cx="0" cy="0" r="1" gradientUnits="userSpaceOnUse" gradientTransform="translate(96.8771 98.2688) rotate(40.7273) scale(496.323 1663.54)">
<stop offset="0.114583" stop-color="#69EDCE"/>
<stop offset="0.401042" stop-color="#C2F46E"/>
<stop offset="0.71875" stop-color="white"/>
<stop offset="0.963542" stop-color="#6CEDCB"/>
</radialGradient>
</defs>
</svg>
