<svg width="866" height="372" viewBox="0 0 866 372" fill="none" xmlns="http://www.w3.org/2000/svg">
<g filter="url(#filter0_d)">
<path d="M20.8473 30.3106H68.1193V9.18261H86.6633V47.1826H44.5593V128.959H20.8473V30.3106ZM104.41 30.3106H179.65V47.1826H128.122V69.8306H174.634V86.7026H128.122V112.087H181.17V128.959H104.41V30.3106ZM201.183 30.3106H224.895V69.8306H266.847V30.3106H290.559V128.959H266.847V86.7026H224.895V128.959H201.183V30.3106ZM315.769 30.3106H391.009V47.1826H339.481V69.8306H385.993V86.7026H339.481V112.087H392.529V128.959H315.769V30.3106ZM412.543 30.3106H452.063C461.689 30.3106 469.289 30.9693 474.863 32.2866C480.537 33.6039 484.641 35.9346 487.175 39.2786C489.809 42.5213 491.127 47.0813 491.127 52.9586V71.6546C491.127 78.1399 489.708 83.2066 486.871 86.8546C484.135 90.5026 479.727 93.0866 473.647 94.6066C467.668 96.1266 459.561 96.8866 449.327 96.8866H436.255V128.959H412.543V30.3106ZM451.303 80.6226C457.484 80.6226 461.841 79.9133 464.375 78.4946C466.908 76.9746 468.175 74.4413 468.175 70.8946V55.0866C468.175 51.8439 466.959 49.716 464.527 48.7026C462.196 47.6893 457.687 47.1826 450.999 47.1826H436.255V80.6226H451.303ZM537.983 30.3106H566.863L602.431 128.959H578.415L569.599 102.967H533.575L524.911 128.959H501.503L537.983 30.3106ZM564.431 87.1586L551.967 50.0706H551.359L538.895 87.1586H564.431ZM692.459 128.959H617.371V30.3106H641.083V112.239H675.435V30.3106H699.147V112.087H713.739V151.911H692.459V128.959ZM731.66 30.3106H755.372V128.959H731.66V30.3106ZM798.876 90.6546C792.492 89.8439 787.73 87.8173 784.588 84.5746C781.447 81.332 779.876 76.7213 779.876 70.7426V51.1346C779.876 43.6359 782.815 38.3159 788.692 35.1746C794.57 31.9319 804.095 30.3106 817.268 30.3106H860.892V128.959H837.18V92.4786H823.196L800.092 128.959H773.036L798.876 90.6546ZM837.18 76.8226V47.1826H817.572C812.303 47.1826 808.554 47.8919 806.324 49.3106C804.196 50.6279 803.132 53.1106 803.132 56.7586V66.0306C803.132 70.2866 804.146 73.1746 806.172 74.6946C808.199 76.1133 811.999 76.8226 817.572 76.8226H837.18ZM132.906 233.311H219.85V331.959H196.138V250.031H156.618V331.959H132.906V233.311ZM245.117 233.311H284.637C294.263 233.311 301.863 233.969 307.437 235.287C313.111 236.604 317.215 238.935 319.749 242.279C322.383 245.521 323.701 250.081 323.701 255.959V274.655C323.701 281.14 322.282 286.207 319.445 289.855C316.709 293.503 312.301 296.087 306.221 297.607C300.242 299.127 292.135 299.887 281.901 299.887H268.829V331.959H245.117V233.311ZM283.877 283.623C290.058 283.623 294.415 282.913 296.949 281.495C299.482 279.975 300.749 277.441 300.749 273.895V258.087C300.749 254.844 299.533 252.716 297.101 251.703C294.77 250.689 290.261 250.183 283.573 250.183H268.829V283.623H283.877ZM344.414 233.311H368.126V300.799L410.686 233.311H434.398V331.959H410.686V263.407L368.126 331.959H344.414V233.311ZM459.742 233.311H525.558V250.183H483.454V331.959H459.742V233.311ZM587.84 333.479C582.368 333.479 577.302 333.124 572.64 332.415C568.08 331.705 563.318 330.489 558.352 328.767C552.982 326.943 548.776 324.004 545.736 319.951C542.696 315.796 541.176 310.78 541.176 304.903V261.735C541.176 256.871 542.24 252.513 544.368 248.663C546.598 244.812 549.435 241.772 552.88 239.543C555.92 237.617 559.67 235.996 564.128 234.679C568.587 233.361 572.742 232.551 576.592 232.247C580.139 231.943 583.888 231.791 587.84 231.791C592.502 231.791 596.555 231.993 600 232.399C603.446 232.703 607.296 233.412 611.552 234.527C616.416 235.945 620.419 237.668 623.56 239.695C626.702 241.721 629.336 244.559 631.464 248.207C633.694 251.956 634.808 256.465 634.808 261.735V304.903C634.808 310.375 633.339 315.087 630.4 319.039C627.563 322.991 623.611 325.98 618.544 328.007C609.424 331.655 599.19 333.479 587.84 333.479ZM588.144 316.607C591.488 316.607 594.275 316.505 596.504 316.303C598.835 315.999 601.216 315.492 603.648 314.783C606.08 314.073 607.904 312.908 609.12 311.287C610.438 309.564 611.096 307.436 611.096 304.903V261.583C611.096 256.921 609.222 253.628 605.472 251.703C601.723 249.676 595.896 248.663 587.992 248.663C580.088 248.663 574.262 249.625 570.512 251.551C566.763 253.476 564.888 256.82 564.888 261.583V304.903C564.888 307.436 565.547 309.564 566.864 311.287C568.182 312.908 570.107 314.073 572.64 314.783C575.072 315.492 577.403 315.999 579.632 316.303C581.963 316.505 584.8 316.607 588.144 316.607ZM649.53 315.087H651.658C655.813 315.087 659.157 313.516 661.69 310.375C664.325 307.132 666.352 301.255 667.77 292.743C669.189 284.231 669.898 272.172 669.898 256.567V233.311H741.642V315.087H756.082V354.911H734.802V331.959H670.81V354.911H649.53V315.087ZM717.93 315.239V250.031H691.178V262.191C691.178 287.828 687.885 305.511 681.298 315.239H717.93Z" fill="#E9DBDB" fill-opacity="0.01"/>
<path d="M20.8473 30.3106H68.1193V9.18261H86.6633V47.1826H44.5593V128.959H20.8473V30.3106ZM104.41 30.3106H179.65V47.1826H128.122V69.8306H174.634V86.7026H128.122V112.087H181.17V128.959H104.41V30.3106ZM201.183 30.3106H224.895V69.8306H266.847V30.3106H290.559V128.959H266.847V86.7026H224.895V128.959H201.183V30.3106ZM315.769 30.3106H391.009V47.1826H339.481V69.8306H385.993V86.7026H339.481V112.087H392.529V128.959H315.769V30.3106ZM412.543 30.3106H452.063C461.689 30.3106 469.289 30.9693 474.863 32.2866C480.537 33.6039 484.641 35.9346 487.175 39.2786C489.809 42.5213 491.127 47.0813 491.127 52.9586V71.6546C491.127 78.1399 489.708 83.2066 486.871 86.8546C484.135 90.5026 479.727 93.0866 473.647 94.6066C467.668 96.1266 459.561 96.8866 449.327 96.8866H436.255V128.959H412.543V30.3106ZM451.303 80.6226C457.484 80.6226 461.841 79.9133 464.375 78.4946C466.908 76.9746 468.175 74.4413 468.175 70.8946V55.0866C468.175 51.8439 466.959 49.716 464.527 48.7026C462.196 47.6893 457.687 47.1826 450.999 47.1826H436.255V80.6226H451.303ZM537.983 30.3106H566.863L602.431 128.959H578.415L569.599 102.967H533.575L524.911 128.959H501.503L537.983 30.3106ZM564.431 87.1586L551.967 50.0706H551.359L538.895 87.1586H564.431ZM692.459 128.959H617.371V30.3106H641.083V112.239H675.435V30.3106H699.147V112.087H713.739V151.911H692.459V128.959ZM731.66 30.3106H755.372V128.959H731.66V30.3106ZM798.876 90.6546C792.492 89.8439 787.73 87.8173 784.588 84.5746C781.447 81.332 779.876 76.7213 779.876 70.7426V51.1346C779.876 43.6359 782.815 38.3159 788.692 35.1746C794.57 31.9319 804.095 30.3106 817.268 30.3106H860.892V128.959H837.18V92.4786H823.196L800.092 128.959H773.036L798.876 90.6546ZM837.18 76.8226V47.1826H817.572C812.303 47.1826 808.554 47.8919 806.324 49.3106C804.196 50.6279 803.132 53.1106 803.132 56.7586V66.0306C803.132 70.2866 804.146 73.1746 806.172 74.6946C808.199 76.1133 811.999 76.8226 817.572 76.8226H837.18ZM132.906 233.311H219.85V331.959H196.138V250.031H156.618V331.959H132.906V233.311ZM245.117 233.311H284.637C294.263 233.311 301.863 233.969 307.437 235.287C313.111 236.604 317.215 238.935 319.749 242.279C322.383 245.521 323.701 250.081 323.701 255.959V274.655C323.701 281.14 322.282 286.207 319.445 289.855C316.709 293.503 312.301 296.087 306.221 297.607C300.242 299.127 292.135 299.887 281.901 299.887H268.829V331.959H245.117V233.311ZM283.877 283.623C290.058 283.623 294.415 282.913 296.949 281.495C299.482 279.975 300.749 277.441 300.749 273.895V258.087C300.749 254.844 299.533 252.716 297.101 251.703C294.77 250.689 290.261 250.183 283.573 250.183H268.829V283.623H283.877ZM344.414 233.311H368.126V300.799L410.686 233.311H434.398V331.959H410.686V263.407L368.126 331.959H344.414V233.311ZM459.742 233.311H525.558V250.183H483.454V331.959H459.742V233.311ZM587.84 333.479C582.368 333.479 577.302 333.124 572.64 332.415C568.08 331.705 563.318 330.489 558.352 328.767C552.982 326.943 548.776 324.004 545.736 319.951C542.696 315.796 541.176 310.78 541.176 304.903V261.735C541.176 256.871 542.24 252.513 544.368 248.663C546.598 244.812 549.435 241.772 552.88 239.543C555.92 237.617 559.67 235.996 564.128 234.679C568.587 233.361 572.742 232.551 576.592 232.247C580.139 231.943 583.888 231.791 587.84 231.791C592.502 231.791 596.555 231.993 600 232.399C603.446 232.703 607.296 233.412 611.552 234.527C616.416 235.945 620.419 237.668 623.56 239.695C626.702 241.721 629.336 244.559 631.464 248.207C633.694 251.956 634.808 256.465 634.808 261.735V304.903C634.808 310.375 633.339 315.087 630.4 319.039C627.563 322.991 623.611 325.98 618.544 328.007C609.424 331.655 599.19 333.479 587.84 333.479ZM588.144 316.607C591.488 316.607 594.275 316.505 596.504 316.303C598.835 315.999 601.216 315.492 603.648 314.783C606.08 314.073 607.904 312.908 609.12 311.287C610.438 309.564 611.096 307.436 611.096 304.903V261.583C611.096 256.921 609.222 253.628 605.472 251.703C601.723 249.676 595.896 248.663 587.992 248.663C580.088 248.663 574.262 249.625 570.512 251.551C566.763 253.476 564.888 256.82 564.888 261.583V304.903C564.888 307.436 565.547 309.564 566.864 311.287C568.182 312.908 570.107 314.073 572.64 314.783C575.072 315.492 577.403 315.999 579.632 316.303C581.963 316.505 584.8 316.607 588.144 316.607ZM649.53 315.087H651.658C655.813 315.087 659.157 313.516 661.69 310.375C664.325 307.132 666.352 301.255 667.77 292.743C669.189 284.231 669.898 272.172 669.898 256.567V233.311H741.642V315.087H756.082V354.911H734.802V331.959H670.81V354.911H649.53V315.087ZM717.93 315.239V250.031H691.178V262.191C691.178 287.828 687.885 305.511 681.298 315.239H717.93Z" fill="url(#paint0_linear)"/>
<path d="M20.8473 30.3106V27.8106H18.3473V30.3106H20.8473ZM68.1193 30.3106V32.8106H70.6193V30.3106H68.1193ZM68.1193 9.18261V6.68261H65.6193V9.18261H68.1193ZM86.6633 9.18261H89.1633V6.68261H86.6633V9.18261ZM86.6633 47.1826V49.6826H89.1633V47.1826H86.6633ZM44.5593 47.1826V44.6826H42.0593V47.1826H44.5593ZM44.5593 128.959V131.459H47.0593V128.959H44.5593ZM20.8473 128.959H18.3473V131.459H20.8473V128.959ZM20.8473 32.8106H68.1193V27.8106H20.8473V32.8106ZM70.6193 30.3106V9.18261H65.6193V30.3106H70.6193ZM68.1193 11.6826H86.6633V6.68261H68.1193V11.6826ZM84.1633 9.18261V47.1826H89.1633V9.18261H84.1633ZM86.6633 44.6826H44.5593V49.6826H86.6633V44.6826ZM42.0593 47.1826V128.959H47.0593V47.1826H42.0593ZM44.5593 126.459H20.8473V131.459H44.5593V126.459ZM23.3473 128.959V30.3106H18.3473V128.959H23.3473ZM104.41 30.3106V27.8106H101.91V30.3106H104.41ZM179.65 30.3106H182.15V27.8106H179.65V30.3106ZM179.65 47.1826V49.6826H182.15V47.1826H179.65ZM128.122 47.1826V44.6826H125.622V47.1826H128.122ZM128.122 69.8306H125.622V72.3306H128.122V69.8306ZM174.634 69.8306H177.134V67.3306H174.634V69.8306ZM174.634 86.7026V89.2026H177.134V86.7026H174.634ZM128.122 86.7026V84.2026H125.622V86.7026H128.122ZM128.122 112.087H125.622V114.587H128.122V112.087ZM181.17 112.087H183.67V109.587H181.17V112.087ZM181.17 128.959V131.459H183.67V128.959H181.17ZM104.41 128.959H101.91V131.459H104.41V128.959ZM104.41 32.8106H179.65V27.8106H104.41V32.8106ZM177.15 30.3106V47.1826H182.15V30.3106H177.15ZM179.65 44.6826H128.122V49.6826H179.65V44.6826ZM125.622 47.1826V69.8306H130.622V47.1826H125.622ZM128.122 72.3306H174.634V67.3306H128.122V72.3306ZM172.134 69.8306V86.7026H177.134V69.8306H172.134ZM174.634 84.2026H128.122V89.2026H174.634V84.2026ZM125.622 86.7026V112.087H130.622V86.7026H125.622ZM128.122 114.587H181.17V109.587H128.122V114.587ZM178.67 112.087V128.959H183.67V112.087H178.67ZM181.17 126.459H104.41V131.459H181.17V126.459ZM106.91 128.959V30.3106H101.91V128.959H106.91ZM201.183 30.3106V27.8106H198.683V30.3106H201.183ZM224.895 30.3106H227.395V27.8106H224.895V30.3106ZM224.895 69.8306H222.395V72.3306H224.895V69.8306ZM266.847 69.8306V72.3306H269.347V69.8306H266.847ZM266.847 30.3106V27.8106H264.347V30.3106H266.847ZM290.559 30.3106H293.059V27.8106H290.559V30.3106ZM290.559 128.959V131.459H293.059V128.959H290.559ZM266.847 128.959H264.347V131.459H266.847V128.959ZM266.847 86.7026H269.347V84.2026H266.847V86.7026ZM224.895 86.7026V84.2026H222.395V86.7026H224.895ZM224.895 128.959V131.459H227.395V128.959H224.895ZM201.183 128.959H198.683V131.459H201.183V128.959ZM201.183 32.8106H224.895V27.8106H201.183V32.8106ZM222.395 30.3106V69.8306H227.395V30.3106H222.395ZM224.895 72.3306H266.847V67.3306H224.895V72.3306ZM269.347 69.8306V30.3106H264.347V69.8306H269.347ZM266.847 32.8106H290.559V27.8106H266.847V32.8106ZM288.059 30.3106V128.959H293.059V30.3106H288.059ZM290.559 126.459H266.847V131.459H290.559V126.459ZM269.347 128.959V86.7026H264.347V128.959H269.347ZM266.847 84.2026H224.895V89.2026H266.847V84.2026ZM222.395 86.7026V128.959H227.395V86.7026H222.395ZM224.895 126.459H201.183V131.459H224.895V126.459ZM203.683 128.959V30.3106H198.683V128.959H203.683ZM315.769 30.3106V27.8106H313.269V30.3106H315.769ZM391.009 30.3106H393.509V27.8106H391.009V30.3106ZM391.009 47.1826V49.6826H393.509V47.1826H391.009ZM339.481 47.1826V44.6826H336.981V47.1826H339.481ZM339.481 69.8306H336.981V72.3306H339.481V69.8306ZM385.993 69.8306H388.493V67.3306H385.993V69.8306ZM385.993 86.7026V89.2026H388.493V86.7026H385.993ZM339.481 86.7026V84.2026H336.981V86.7026H339.481ZM339.481 112.087H336.981V114.587H339.481V112.087ZM392.529 112.087H395.029V109.587H392.529V112.087ZM392.529 128.959V131.459H395.029V128.959H392.529ZM315.769 128.959H313.269V131.459H315.769V128.959ZM315.769 32.8106H391.009V27.8106H315.769V32.8106ZM388.509 30.3106V47.1826H393.509V30.3106H388.509ZM391.009 44.6826H339.481V49.6826H391.009V44.6826ZM336.981 47.1826V69.8306H341.981V47.1826H336.981ZM339.481 72.3306H385.993V67.3306H339.481V72.3306ZM383.493 69.8306V86.7026H388.493V69.8306H383.493ZM385.993 84.2026H339.481V89.2026H385.993V84.2026ZM336.981 86.7026V112.087H341.981V86.7026H336.981ZM339.481 114.587H392.529V109.587H339.481V114.587ZM390.029 112.087V128.959H395.029V112.087H390.029ZM392.529 126.459H315.769V131.459H392.529V126.459ZM318.269 128.959V30.3106H313.269V128.959H318.269ZM412.543 30.3106V27.8106H410.043V30.3106H412.543ZM474.863 32.2866L474.288 34.7196L474.297 34.7219L474.863 32.2866ZM487.175 39.2786L485.182 40.7883L485.208 40.8221L485.234 40.8551L487.175 39.2786ZM486.871 86.8546L484.897 85.3198L484.884 85.3371L484.871 85.3546L486.871 86.8546ZM473.647 94.6066L473.04 92.1812L473.031 92.1837L473.647 94.6066ZM436.255 96.8866V94.3866H433.755V96.8866H436.255ZM436.255 128.959V131.459H438.755V128.959H436.255ZM412.543 128.959H410.043V131.459H412.543V128.959ZM464.375 78.4946L465.596 80.6759L465.629 80.6576L465.661 80.6384L464.375 78.4946ZM464.527 48.7026L463.53 50.9953L463.547 51.0029L463.565 51.0103L464.527 48.7026ZM436.255 47.1826V44.6826H433.755V47.1826H436.255ZM436.255 80.6226H433.755V83.1226H436.255V80.6226ZM412.543 32.8106H452.063V27.8106H412.543V32.8106ZM452.063 32.8106C461.608 32.8106 468.987 33.4667 474.288 34.7196L475.438 29.8537C469.591 28.4718 461.771 27.8106 452.063 27.8106V32.8106ZM474.297 34.7219C479.622 35.9579 483.117 38.0627 485.182 40.7883L489.167 37.769C486.165 33.8065 481.453 31.2499 475.428 29.8514L474.297 34.7219ZM485.234 40.8551C487.385 43.5016 488.627 47.4257 488.627 52.9586H493.627C493.627 46.7368 492.234 41.541 489.115 37.7021L485.234 40.8551ZM488.627 52.9586V71.6546H493.627V52.9586H488.627ZM488.627 71.6546C488.627 77.8036 487.279 82.2571 484.897 85.3198L488.844 88.3895C492.137 84.1561 493.627 78.4763 493.627 71.6546H488.627ZM484.871 85.3546C482.588 88.3976 478.77 90.7488 473.04 92.1813L474.253 97.032C480.683 95.4244 485.681 92.6077 488.871 88.3546L484.871 85.3546ZM473.031 92.1837C467.342 93.63 459.471 94.3866 449.327 94.3866V99.3866C459.652 99.3866 467.994 98.6232 474.263 97.0295L473.031 92.1837ZM449.327 94.3866H436.255V99.3866H449.327V94.3866ZM433.755 96.8866V128.959H438.755V96.8866H433.755ZM436.255 126.459H412.543V131.459H436.255V126.459ZM415.043 128.959V30.3106H410.043V128.959H415.043ZM451.303 83.1226C457.531 83.1226 462.459 82.4329 465.596 80.6759L463.153 76.3133C461.224 77.3937 457.437 78.1226 451.303 78.1226V83.1226ZM465.661 80.6384C469.109 78.5696 470.675 75.1131 470.675 70.8946H465.675C465.675 73.7695 464.707 75.3796 463.088 76.3509L465.661 80.6384ZM470.675 70.8946V55.0866H465.675V70.8946H470.675ZM470.675 55.0866C470.675 53.1663 470.316 51.3628 469.433 49.8183C468.53 48.2377 467.173 47.0971 465.488 46.3949L463.565 51.0103C464.312 51.3215 464.779 51.7515 465.092 52.299C465.425 52.8824 465.675 53.7642 465.675 55.0866H470.675ZM465.523 46.4099C464.017 45.7551 462.016 45.3412 459.676 45.0782C457.296 44.8109 454.397 44.6826 450.999 44.6826V49.6826C454.289 49.6826 456.988 49.8077 459.117 50.047C461.286 50.2907 462.705 50.6368 463.53 50.9953L465.523 46.4099ZM450.999 44.6826H436.255V49.6826H450.999V44.6826ZM433.755 47.1826V80.6226H438.755V47.1826H433.755ZM436.255 83.1226H451.303V78.1226H436.255V83.1226ZM537.983 30.3106V27.8106H536.242L535.639 29.4435L537.983 30.3106ZM566.863 30.3106L569.215 29.4627L568.62 27.8106H566.863V30.3106ZM602.431 128.959V131.459H605.99L604.783 128.111L602.431 128.959ZM578.415 128.959L576.048 129.762L576.624 131.459H578.415V128.959ZM569.599 102.967L571.967 102.164L571.391 100.467H569.599V102.967ZM533.575 102.967V100.467H531.774L531.204 102.176L533.575 102.967ZM524.911 128.959V131.459H526.713L527.283 129.749L524.911 128.959ZM501.503 128.959L499.159 128.092L497.914 131.459H501.503V128.959ZM564.431 87.1586V89.6586H567.909L566.801 86.3622L564.431 87.1586ZM551.967 50.0706L554.337 49.2742L553.765 47.5706H551.967V50.0706ZM551.359 50.0706V47.5706H549.562L548.99 49.2742L551.359 50.0706ZM538.895 87.1586L536.526 86.3622L535.418 89.6586H538.895V87.1586ZM537.983 32.8106H566.863V27.8106H537.983V32.8106ZM564.512 31.1586L600.08 129.807L604.783 128.111L569.215 29.4627L564.512 31.1586ZM602.431 126.459H578.415V131.459H602.431V126.459ZM580.783 128.156L571.967 102.164L567.232 103.77L576.048 129.762L580.783 128.156ZM569.599 100.467H533.575V105.467H569.599V100.467ZM531.204 102.176L522.54 128.168L527.283 129.749L535.947 103.757L531.204 102.176ZM524.911 126.459H501.503V131.459H524.911V126.459ZM503.848 129.826L540.328 31.1777L535.639 29.4435L499.159 128.092L503.848 129.826ZM566.801 86.3622L554.337 49.2742L549.598 50.867L562.062 87.955L566.801 86.3622ZM551.967 47.5706H551.359V52.5706H551.967V47.5706ZM548.99 49.2742L536.526 86.3622L541.265 87.955L553.729 50.867L548.99 49.2742ZM538.895 89.6586H564.431V84.6586H538.895V89.6586ZM692.459 128.959H694.959V126.459H692.459V128.959ZM617.371 128.959H614.871V131.459H617.371V128.959ZM617.371 30.3106V27.8106H614.871V30.3106H617.371ZM641.083 30.3106H643.583V27.8106H641.083V30.3106ZM641.083 112.239H638.583V114.739H641.083V112.239ZM675.435 112.239V114.739H677.935V112.239H675.435ZM675.435 30.3106V27.8106H672.935V30.3106H675.435ZM699.147 30.3106H701.647V27.8106H699.147V30.3106ZM699.147 112.087H696.647V114.587H699.147V112.087ZM713.739 112.087H716.239V109.587H713.739V112.087ZM713.739 151.911V154.411H716.239V151.911H713.739ZM692.459 151.911H689.959V154.411H692.459V151.911ZM692.459 126.459H617.371V131.459H692.459V126.459ZM619.871 128.959V30.3106H614.871V128.959H619.871ZM617.371 32.8106H641.083V27.8106H617.371V32.8106ZM638.583 30.3106V112.239H643.583V30.3106H638.583ZM641.083 114.739H675.435V109.739H641.083V114.739ZM677.935 112.239V30.3106H672.935V112.239H677.935ZM675.435 32.8106H699.147V27.8106H675.435V32.8106ZM696.647 30.3106V112.087H701.647V30.3106H696.647ZM699.147 114.587H713.739V109.587H699.147V114.587ZM711.239 112.087V151.911H716.239V112.087H711.239ZM713.739 149.411H692.459V154.411H713.739V149.411ZM694.959 151.911V128.959H689.959V151.911H694.959ZM731.66 30.3106V27.8106H729.16V30.3106H731.66ZM755.372 30.3106H757.872V27.8106H755.372V30.3106ZM755.372 128.959V131.459H757.872V128.959H755.372ZM731.66 128.959H729.16V131.459H731.66V128.959ZM731.66 32.8106H755.372V27.8106H731.66V32.8106ZM752.872 30.3106V128.959H757.872V30.3106H752.872ZM755.372 126.459H731.66V131.459H755.372V126.459ZM734.16 128.959V30.3106H729.16V128.959H734.16ZM798.876 90.6546L800.949 92.0527L803.22 88.6861L799.191 88.1745L798.876 90.6546ZM784.588 84.5746L786.384 82.8351L784.588 84.5746ZM788.692 35.1746L789.871 37.3794L789.885 37.3716L789.9 37.3636L788.692 35.1746ZM860.892 30.3106H863.392V27.8106H860.892V30.3106ZM860.892 128.959V131.459H863.392V128.959H860.892ZM837.18 128.959H834.68V131.459H837.18V128.959ZM837.18 92.4786H839.68V89.9786H837.18V92.4786ZM823.196 92.4786V89.9786H821.82L821.084 91.141L823.196 92.4786ZM800.092 128.959V131.459H801.468L802.204 130.296L800.092 128.959ZM773.036 128.959L770.964 127.561L768.334 131.459H773.036V128.959ZM837.18 76.8226V79.3226H839.68V76.8226H837.18ZM837.18 47.1826H839.68V44.6826H837.18V47.1826ZM806.324 49.3106L807.64 51.4363L807.653 51.4281L807.667 51.4198L806.324 49.3106ZM806.172 74.6946L804.672 76.6946L804.705 76.7192L804.739 76.7427L806.172 74.6946ZM799.191 88.1745C793.136 87.4057 788.992 85.5277 786.384 82.8351L782.793 86.3141C786.467 90.1068 791.848 92.2822 798.561 93.1347L799.191 88.1745ZM786.384 82.8351C783.826 80.1944 782.376 76.289 782.376 70.7426H777.376C777.376 77.1536 779.068 82.4696 782.793 86.3141L786.384 82.8351ZM782.376 70.7426V51.1346H777.376V70.7426H782.376ZM782.376 51.1346C782.376 47.7104 783.046 44.9423 784.269 42.7294C785.482 40.5324 787.315 38.7454 789.871 37.3794L787.514 32.9698C784.192 34.7452 781.617 37.1888 779.892 40.3118C778.176 43.4189 777.376 47.0602 777.376 51.1346H782.376ZM789.9 37.3636C795.197 34.4411 804.184 32.8106 817.268 32.8106V27.8106C804.006 27.8106 793.942 29.4228 787.485 32.9857L789.9 37.3636ZM817.268 32.8106H860.892V27.8106H817.268V32.8106ZM858.392 30.3106V128.959H863.392V30.3106H858.392ZM860.892 126.459H837.18V131.459H860.892V126.459ZM839.68 128.959V92.4786H834.68V128.959H839.68ZM837.18 89.9786H823.196V94.9786H837.18V89.9786ZM821.084 91.141L797.98 127.621L802.204 130.296L825.308 93.8162L821.084 91.141ZM800.092 126.459H773.036V131.459H800.092V126.459ZM775.109 130.357L800.949 92.0527L796.804 89.2565L770.964 127.561L775.109 130.357ZM839.68 76.8226V47.1826H834.68V76.8226H839.68ZM837.18 44.6826H817.572V49.6826H837.18V44.6826ZM817.572 44.6826C812.217 44.6826 807.848 45.3779 804.982 47.2015L807.667 51.4198C809.26 50.406 812.389 49.6826 817.572 49.6826V44.6826ZM805.008 47.185C801.841 49.146 800.632 52.675 800.632 56.7586H805.632C805.632 53.5462 806.552 52.1099 807.64 51.4363L805.008 47.185ZM800.632 56.7586V66.0306H805.632V56.7586H800.632ZM800.632 66.0306C800.632 70.5452 801.688 74.4566 804.672 76.6946L807.672 72.6946C806.603 71.8926 805.632 70.028 805.632 66.0306H800.632ZM804.739 76.7427C806.162 77.7391 808.01 78.361 810.084 78.7482C812.185 79.1404 814.693 79.3226 817.572 79.3226V74.3226C814.878 74.3226 812.7 74.1501 811.001 73.8331C809.275 73.5109 808.209 73.0688 807.606 72.6465L804.739 76.7427ZM817.572 79.3226H837.18V74.3226H817.572V79.3226ZM132.906 233.311V230.811H130.406V233.311H132.906ZM219.85 233.311H222.35V230.811H219.85V233.311ZM219.85 331.959V334.459H222.35V331.959H219.85ZM196.138 331.959H193.638V334.459H196.138V331.959ZM196.138 250.031H198.638V247.531H196.138V250.031ZM156.618 250.031V247.531H154.118V250.031H156.618ZM156.618 331.959V334.459H159.118V331.959H156.618ZM132.906 331.959H130.406V334.459H132.906V331.959ZM132.906 235.811H219.85V230.811H132.906V235.811ZM217.35 233.311V331.959H222.35V233.311H217.35ZM219.85 329.459H196.138V334.459H219.85V329.459ZM198.638 331.959V250.031H193.638V331.959H198.638ZM196.138 247.531H156.618V252.531H196.138V247.531ZM154.118 250.031V331.959H159.118V250.031H154.118ZM156.618 329.459H132.906V334.459H156.618V329.459ZM135.406 331.959V233.311H130.406V331.959H135.406ZM245.117 233.311V230.811H242.617V233.311H245.117ZM307.437 235.287L306.862 237.72L306.871 237.722L307.437 235.287ZM319.749 242.279L317.756 243.788L317.782 243.822L317.809 243.855L319.749 242.279ZM319.445 289.855L317.471 288.32L317.458 288.337L317.445 288.355L319.445 289.855ZM306.221 297.607L305.614 295.181L305.605 295.184L306.221 297.607ZM268.829 299.887V297.387H266.329V299.887H268.829ZM268.829 331.959V334.459H271.329V331.959H268.829ZM245.117 331.959H242.617V334.459H245.117V331.959ZM296.949 281.495L298.17 283.676L298.203 283.658L298.235 283.638L296.949 281.495ZM297.101 251.703L296.104 253.995L296.122 254.003L296.139 254.01L297.101 251.703ZM268.829 250.183V247.683H266.329V250.183H268.829ZM268.829 283.623H266.329V286.123H268.829V283.623ZM245.117 235.811H284.637V230.811H245.117V235.811ZM284.637 235.811C294.182 235.811 301.561 236.467 306.862 237.72L308.012 232.854C302.166 231.472 294.345 230.811 284.637 230.811V235.811ZM306.871 237.722C312.196 238.958 315.691 241.063 317.756 243.788L321.742 240.769C318.74 236.806 314.027 234.25 308.002 232.851L306.871 237.722ZM317.809 243.855C319.959 246.502 321.201 250.426 321.201 255.959H326.201C326.201 249.737 324.808 244.541 321.689 240.702L317.809 243.855ZM321.201 255.959V274.655H326.201V255.959H321.201ZM321.201 274.655C321.201 280.804 319.854 285.257 317.471 288.32L321.418 291.389C324.711 287.156 326.201 281.476 326.201 274.655H321.201ZM317.445 288.355C315.163 291.398 311.344 293.749 305.614 295.181L306.827 300.032C313.257 298.424 318.255 295.608 321.445 291.355L317.445 288.355ZM305.605 295.184C299.916 296.63 292.045 297.387 281.901 297.387V302.387C292.226 302.387 300.568 301.623 306.837 300.03L305.605 295.184ZM281.901 297.387H268.829V302.387H281.901V297.387ZM266.329 299.887V331.959H271.329V299.887H266.329ZM268.829 329.459H245.117V334.459H268.829V329.459ZM247.617 331.959V233.311H242.617V331.959H247.617ZM283.877 286.123C290.105 286.123 295.033 285.433 298.17 283.676L295.727 279.313C293.798 280.394 290.011 281.123 283.877 281.123V286.123ZM298.235 283.638C301.683 281.57 303.249 278.113 303.249 273.895H298.249C298.249 276.769 297.281 278.38 295.663 279.351L298.235 283.638ZM303.249 273.895V258.087H298.249V273.895H303.249ZM303.249 258.087C303.249 256.166 302.89 254.363 302.007 252.818C301.104 251.238 299.747 250.097 298.062 249.395L296.139 254.01C296.886 254.322 297.353 254.751 297.666 255.299C298 255.882 298.249 256.764 298.249 258.087H303.249ZM298.098 249.41C296.592 248.755 294.59 248.341 292.25 248.078C289.87 247.811 286.971 247.683 283.573 247.683V252.683C286.863 252.683 289.562 252.808 291.692 253.047C293.861 253.291 295.279 253.637 296.104 253.995L298.098 249.41ZM283.573 247.683H268.829V252.683H283.573V247.683ZM266.329 250.183V283.623H271.329V250.183H266.329ZM268.829 286.123H283.877V281.123H268.829V286.123ZM344.414 233.311V230.811H341.914V233.311H344.414ZM368.126 233.311H370.626V230.811H368.126V233.311ZM368.126 300.799H365.626V309.45L370.24 302.132L368.126 300.799ZM410.686 233.311V230.811H409.307L408.571 231.977L410.686 233.311ZM434.398 233.311H436.898V230.811H434.398V233.311ZM434.398 331.959V334.459H436.898V331.959H434.398ZM410.686 331.959H408.186V334.459H410.686V331.959ZM410.686 263.407H413.186V254.64L408.562 262.088L410.686 263.407ZM368.126 331.959V334.459H369.516L370.25 333.277L368.126 331.959ZM344.414 331.959H341.914V334.459H344.414V331.959ZM344.414 235.811H368.126V230.811H344.414V235.811ZM365.626 233.311V300.799H370.626V233.311H365.626ZM370.24 302.132L412.8 234.644L408.571 231.977L366.011 299.465L370.24 302.132ZM410.686 235.811H434.398V230.811H410.686V235.811ZM431.898 233.311V331.959H436.898V233.311H431.898ZM434.398 329.459H410.686V334.459H434.398V329.459ZM413.186 331.959V263.407H408.186V331.959H413.186ZM408.562 262.088L366.002 330.64L370.25 333.277L412.81 264.725L408.562 262.088ZM368.126 329.459H344.414V334.459H368.126V329.459ZM346.914 331.959V233.311H341.914V331.959H346.914ZM459.742 233.311V230.811H457.242V233.311H459.742ZM525.558 233.311H528.058V230.811H525.558V233.311ZM525.558 250.183V252.683H528.058V250.183H525.558ZM483.454 250.183V247.683H480.954V250.183H483.454ZM483.454 331.959V334.459H485.954V331.959H483.454ZM459.742 331.959H457.242V334.459H459.742V331.959ZM459.742 235.811H525.558V230.811H459.742V235.811ZM523.058 233.311V250.183H528.058V233.311H523.058ZM525.558 247.683H483.454V252.683H525.558V247.683ZM480.954 250.183V331.959H485.954V250.183H480.954ZM483.454 329.459H459.742V334.459H483.454V329.459ZM462.242 331.959V233.311H457.242V331.959H462.242ZM572.64 332.415L572.256 334.885L572.264 334.886L572.64 332.415ZM558.352 328.767L559.172 326.405L559.164 326.402L559.156 326.399L558.352 328.767ZM545.736 319.951L543.719 321.427L543.727 321.439L543.736 321.451L545.736 319.951ZM544.368 248.663L542.205 247.41L542.192 247.432L542.18 247.453L544.368 248.663ZM552.88 239.543L551.543 237.431L551.532 237.437L551.522 237.444L552.88 239.543ZM564.128 234.679L564.837 237.076L564.128 234.679ZM576.592 232.247L576.789 234.739L576.797 234.738L576.806 234.737L576.592 232.247ZM600 232.399L599.708 234.882L599.744 234.886L599.781 234.889L600 232.399ZM611.552 234.527L612.252 232.127L612.219 232.117L612.186 232.108L611.552 234.527ZM623.56 239.695L624.916 237.594L623.56 239.695ZM631.464 248.207L629.305 249.466L629.31 249.475L629.315 249.484L631.464 248.207ZM630.4 319.039L628.394 317.547L628.382 317.564L628.37 317.581L630.4 319.039ZM618.544 328.007L617.616 325.685L618.544 328.007ZM596.504 316.303L596.731 318.792L596.779 318.788L596.828 318.782L596.504 316.303ZM603.648 314.783L602.948 312.383L603.648 314.783ZM609.12 311.287L607.134 309.768L607.127 309.777L607.12 309.787L609.12 311.287ZM605.472 251.703L604.284 253.902L604.307 253.914L604.33 253.927L605.472 251.703ZM566.864 311.287L564.878 312.805L564.901 312.835L564.924 312.863L566.864 311.287ZM572.64 314.783L573.34 312.383L573.327 312.379L573.314 312.375L572.64 314.783ZM579.632 316.303L579.295 318.78L579.355 318.788L579.416 318.793L579.632 316.303ZM587.84 330.979C582.475 330.979 577.535 330.631 573.016 329.943L572.264 334.886C577.068 335.617 582.262 335.979 587.84 335.979V330.979ZM573.025 329.944C568.631 329.261 564.015 328.085 559.172 326.405L557.533 331.129C562.621 332.894 567.529 334.15 572.256 334.885L573.025 329.944ZM559.156 326.399C554.203 324.717 550.439 322.054 547.736 318.451L543.736 321.451C547.114 325.954 551.76 329.168 557.548 331.134L559.156 326.399ZM547.754 318.474C545.071 314.807 543.676 310.327 543.676 304.903H538.676C538.676 311.232 540.322 316.785 543.719 321.427L547.754 318.474ZM543.676 304.903V261.735H538.676V304.903H543.676ZM543.676 261.735C543.676 257.248 544.654 253.314 546.556 249.872L542.18 247.453C539.827 251.712 538.676 256.493 538.676 261.735H543.676ZM546.532 249.915C548.58 246.377 551.152 243.639 554.238 241.642L551.522 237.444C547.718 239.905 544.615 243.247 542.205 247.41L546.532 249.915ZM554.218 241.655C557.015 239.883 560.539 238.346 564.837 237.076L563.42 232.281C558.8 233.646 554.826 235.351 551.543 237.431L554.218 241.655ZM564.837 237.076C569.161 235.798 573.143 235.027 576.789 234.739L576.396 229.754C572.341 230.074 568.013 230.924 563.42 232.281L564.837 237.076ZM576.806 234.737C580.274 234.44 583.952 234.291 587.84 234.291V229.291C583.825 229.291 580.004 229.445 576.379 229.756L576.806 234.737ZM587.84 234.291C592.435 234.291 596.386 234.491 599.708 234.882L600.292 229.916C596.724 229.496 592.568 229.291 587.84 229.291V234.291ZM599.781 234.889C603.055 235.178 606.764 235.857 610.919 236.945L612.186 232.108C607.829 230.967 603.837 230.227 600.22 229.908L599.781 234.889ZM610.852 236.927C615.561 238.3 619.324 239.937 622.205 241.795L624.916 237.594C621.514 235.399 617.272 233.591 612.252 232.127L610.852 236.927ZM622.205 241.795C624.975 243.583 627.349 246.114 629.305 249.466L633.624 246.947C631.324 243.004 628.428 239.86 624.916 237.594L622.205 241.795ZM629.315 249.484C631.271 252.774 632.308 256.821 632.308 261.735H637.308C637.308 256.109 636.116 251.138 633.613 246.929L629.315 249.484ZM632.308 261.735V304.903H637.308V261.735H632.308ZM632.308 304.903C632.308 309.9 630.977 314.074 628.394 317.547L632.406 320.53C635.701 316.099 637.308 310.849 637.308 304.903H632.308ZM628.37 317.581C625.843 321.1 622.296 323.813 617.616 325.685L619.473 330.328C624.926 328.146 629.283 324.881 632.431 320.497L628.37 317.581ZM617.616 325.685C608.833 329.198 598.92 330.979 587.84 330.979V335.979C599.459 335.979 610.015 334.111 619.473 330.328L617.616 325.685ZM588.144 319.107C591.531 319.107 594.399 319.004 596.731 318.792L596.278 313.813C594.151 314.006 591.446 314.107 588.144 314.107V319.107ZM596.828 318.782C599.295 318.46 601.802 317.925 604.348 317.183L602.948 312.383C600.63 313.059 598.375 313.537 596.181 313.824L596.828 318.782ZM604.348 317.183C607.168 316.36 609.506 314.939 611.12 312.787L607.12 309.787C606.303 310.877 604.993 311.786 602.948 312.383L604.348 317.183ZM611.106 312.805C612.811 310.576 613.596 307.889 613.596 304.903H608.596C608.596 306.983 608.064 308.552 607.134 309.768L611.106 312.805ZM613.596 304.903V261.583H608.596V304.903H613.596ZM613.596 261.583C613.596 258.917 613.059 256.481 611.863 254.38C610.659 252.264 608.871 250.637 606.614 249.479L604.33 253.927C605.823 254.693 606.847 255.675 607.518 256.853C608.196 258.046 608.596 259.587 608.596 261.583H613.596ZM606.661 249.503C602.352 247.174 596.013 246.163 587.992 246.163V251.163C595.78 251.163 601.094 252.178 604.284 253.902L606.661 249.503ZM587.992 246.163C579.981 246.163 573.663 247.122 569.37 249.327L571.654 253.775C574.86 252.128 580.196 251.163 587.992 251.163V246.163ZM569.37 249.327C567.104 250.491 565.315 252.137 564.114 254.28C562.922 256.406 562.388 258.876 562.388 261.583H567.388C567.388 259.527 567.792 257.943 568.475 256.725C569.148 255.524 570.172 254.536 571.654 253.775L569.37 249.327ZM562.388 261.583V304.903H567.388V261.583H562.388ZM562.388 304.903C562.388 307.889 563.174 310.576 564.878 312.805L568.85 309.768C567.92 308.552 567.388 306.983 567.388 304.903H562.388ZM564.924 312.863C566.643 314.979 569.065 316.378 571.966 317.19L573.314 312.375C571.149 311.769 569.72 310.837 568.805 309.71L564.924 312.863ZM571.94 317.183C574.476 317.922 576.929 318.457 579.295 318.78L579.97 313.826C577.877 313.54 575.668 313.062 573.34 312.383L571.94 317.183ZM579.416 318.793C581.842 319.004 584.756 319.107 588.144 319.107V314.107C584.845 314.107 582.084 314.006 579.849 313.812L579.416 318.793ZM649.53 315.087V312.587H647.03V315.087H649.53ZM661.69 310.375L659.75 308.798L659.744 308.805L661.69 310.375ZM667.77 292.743L665.304 292.332L667.77 292.743ZM669.898 233.311V230.811H667.398V233.311H669.898ZM741.642 233.311H744.142V230.811H741.642V233.311ZM741.642 315.087H739.142V317.587H741.642V315.087ZM756.082 315.087H758.582V312.587H756.082V315.087ZM756.082 354.911V357.411H758.582V354.911H756.082ZM734.802 354.911H732.302V357.411H734.802V354.911ZM734.802 331.959H737.302V329.459H734.802V331.959ZM670.81 331.959V329.459H668.31V331.959H670.81ZM670.81 354.911V357.411H673.31V354.911H670.81ZM649.53 354.911H647.03V357.411H649.53V354.911ZM717.93 315.239V317.739H720.43V315.239H717.93ZM717.93 250.031H720.43V247.531H717.93V250.031ZM691.178 250.031V247.531H688.678V250.031H691.178ZM681.298 315.239L679.228 313.837L676.586 317.739H681.298V315.239ZM649.53 317.587H651.658V312.587H649.53V317.587ZM651.658 317.587C656.543 317.587 660.612 315.694 663.636 311.944L659.744 308.805C657.701 311.338 655.083 312.587 651.658 312.587V317.587ZM663.631 311.951C666.703 308.17 668.807 301.728 670.236 293.154L665.304 292.332C663.896 300.781 661.947 306.094 659.75 308.798L663.631 311.951ZM670.236 293.154C671.689 284.439 672.398 272.219 672.398 256.567H667.398C667.398 272.125 666.689 284.023 665.304 292.332L670.236 293.154ZM672.398 256.567V233.311H667.398V256.567H672.398ZM669.898 235.811H741.642V230.811H669.898V235.811ZM739.142 233.311V315.087H744.142V233.311H739.142ZM741.642 317.587H756.082V312.587H741.642V317.587ZM753.582 315.087V354.911H758.582V315.087H753.582ZM756.082 352.411H734.802V357.411H756.082V352.411ZM737.302 354.911V331.959H732.302V354.911H737.302ZM734.802 329.459H670.81V334.459H734.802V329.459ZM668.31 331.959V354.911H673.31V331.959H668.31ZM670.81 352.411H649.53V357.411H670.81V352.411ZM652.03 354.911V315.087H647.03V354.911H652.03ZM720.43 315.239V250.031H715.43V315.239H720.43ZM717.93 247.531H691.178V252.531H717.93V247.531ZM688.678 250.031V262.191H693.678V250.031H688.678ZM688.678 262.191C688.678 287.796 685.354 304.789 679.228 313.837L683.368 316.64C690.416 306.232 693.678 287.86 693.678 262.191H688.678ZM681.298 317.739H717.93V312.739H681.298V317.739Z" fill="url(#paint1_radial)"/>
</g>
<defs>
<filter id="filter0_d" x="0.347168" y="0.682617" width="865.045" height="370.728" filterUnits="userSpaceOnUse" color-interpolation-filters="sRGB">
<feFlood flood-opacity="0" result="BackgroundImageFix"/>
<feColorMatrix in="SourceAlpha" type="matrix" values="0 0 0 0 0 0 0 0 0 0 0 0 0 0 0 0 0 0 127 0"/>
<feOffset dx="-8" dy="4"/>
<feGaussianBlur stdDeviation="5"/>
<feColorMatrix type="matrix" values="0 0 0 0 0 0 0 0 0 0 0 0 0 0 0 0 0 0 0.36 0"/>
<feBlend mode="normal" in2="BackgroundImageFix" result="effect1_dropShadow"/>
<feBlend mode="normal" in="SourceGraphic" in2="effect1_dropShadow" result="shape"/>
</filter>
<linearGradient id="paint0_linear" x1="357.405" y1="-71.9037" x2="416.637" y2="374.23" gradientUnits="userSpaceOnUse">
<stop offset="0.100233" stop-color="#167198" stop-opacity="0.54"/>
<stop offset="0.989085" stop-color="#4B00E4" stop-opacity="0.26"/>
</linearGradient>
<radialGradient id="paint1_radial" cx="0" cy="0" r="1" gradientUnits="userSpaceOnUse" gradientTransform="translate(25.0371 60.3677) rotate(30.3395) scale(426.31 1259.81)">
<stop offset="0.114583" stop-color="#69EDCE"/>
<stop offset="0.401042" stop-color="#C2F46E"/>
<stop offset="0.71875" stop-color="white"/>
<stop offset="0.963542" stop-color="#6CEDCB"/>
</radialGradient>
</defs>
</svg>
