<svg width="102" height="102" viewBox="0 0 102 102" fill="none" xmlns="http://www.w3.org/2000/svg">
<g id="logo777">
<path id="Oval" fill-rule="evenodd" clip-rule="evenodd" d="M51 101.999C79.1665 101.816 102 78.9828 102 51C102 23.0172 79.1665 0.184171 51 0.0010933C22.8335 -0.181984 0 22.651 0 51C0 79.349 22.8335 102.182 51 101.999Z" fill="#5DF1CB"/>
<path id="Combined Shape" fill-rule="evenodd" clip-rule="evenodd" d="M46.8763 35.2443L102 52.1195C101.876 57.5863 100.86 62.8387 99.0887 67.7432L57.5514 55.168L43.5803 100.948C38.1567 100.19 33.0129 98.5758 28.2908 96.2433L46.8763 35.2443ZM70.1099 4.20618L70.728 4.38805C75.4685 6.40002 79.8438 9.09815 83.725 12.3529L76.4917 39.3172L43.2998 29.0313L23.69 93.6928C18.6559 90.4854 14.2309 86.4008 10.625 81.6478L32.032 10.9656L47.2183 15.745L65.2095 21.2938L70.1099 4.20618Z" fill="white"/>
</g>
</svg>
